<svg xmlns="http://www.w3.org/2000/svg" xmlns:xlink="http://www.w3.org/1999/xlink" version="1.1" id="9391330604" x="0px" y="0px" width="100%" height="100%" viewBox="0 0 191.022 187.783" style="" xml:space="preserve" preserveAspectRatio="none" class="element svg-element">
<g>
	<path style="fill-rule:evenodd;clip-rule:evenodd;fill:#FBD6A0;" d="M62.975,28.889H46.448V12.361H3.239V0h0.005   c3.73,0.007,49.091,0.014,52.82,0.014h2.734v16.525h4.177V0.014H91.85v28.875H75.323v4.179h20.706V0.014h45.403v16.525   c1.392,0,2.787,0,4.18,0V0.014h45.401v45.401h-2.733c-4.595,0-9.195,0-13.794,0v4.178h16.527v45.403h-33.054v20.706h4.177V99.174   h28.877v28.876h-16.527v4.18h16.527v2.73c0,3.73,0.005,49.093,0.009,52.823v0.004h-12.361v-43.209h-16.525V128.05h-16.525V82.646   h33.051V61.942h-4.177V78.47h-28.874V61.942h-16.527V45.415h-16.528V16.539h16.528v-4.178h-20.707v33.054H62.975V28.889   L62.975,28.889z M129.084,28.889h-4.18v4.179h4.18V28.889L129.084,28.889z M141.431,33.067h4.18c0-1.394,0-2.785,0-4.179   c-1.393,0-2.788,0-4.18,0V33.067L141.431,33.067z M157.959,61.942v4.178h4.177v-4.178H157.959L157.959,61.942z M162.136,49.593   v-4.178c-1.393,0-2.783,0-4.177,0c0,1.392,0,2.786,0,4.178H162.136L162.136,49.593z M145.611,49.593c0-1.392,0-2.785,0-4.178h-4.18   v4.178H145.611L145.611,49.593z M157.959,28.889c0,1.394,0,2.785,0,4.179c1.395,0,2.784,0,4.177,0v-4.179   C160.743,28.889,159.353,28.889,157.959,28.889L157.959,28.889z M174.485,33.067c1.393,0,2.785,0,4.177,0V12.361h-20.704v4.178   c4.599,0,9.198,0,13.797,0h2.729V33.067L174.485,33.067z M174.485,115.702h4.177v-4.179h-4.177V115.702L174.485,115.702z    M75.323,16.539h4.178v-4.178h-4.178V16.539L75.323,16.539z"></path>
	<path style="fill-rule:evenodd;clip-rule:evenodd;fill:#A30022;" d="M155.228,9.63v8.351h-6.887V2.745h33.055h6.883v39.938   c-10.585,0-21.174,0-31.76,0v-6.885c8.291,0,16.583,0,24.877,0V9.63H155.228L155.228,9.63z M171.756,43.976v31.762h-23.415V60.501   h6.887v8.352h9.64V43.976H171.756L171.756,43.976z M148.341,51.034c0-7.861,0-15.724,0-23.587h6.887c0,7.863,0,15.725,0,23.587   H148.341L148.341,51.034z M164.868,34.507v-8.351c-8.292,0-16.585,0-24.879,0v-6.886c10.588,0,21.178,0,31.767,0v15.236H164.868   L164.868,34.507z M147.05,42.684h-31.763V19.271h15.236v6.886h-8.35v9.642h24.876V42.684L147.05,42.684z M181.396,141.847h-16.528   v-13.964l0,0v-9.45v-3.381v-13.146h23.411v23.411h-15.235v-6.885h8.352v-9.64h-9.64v6.26l0,0v10.265l0,0v9.643h16.523   c0,3.732,0.005,49.094,0.013,52.827h-6.901L181.396,141.847L181.396,141.847z M163.577,125.317h-15.236V85.379h33.055V59.21h-8.352   v-6.885h15.235v39.939h-33.051v26.168h8.349V125.317L163.577,125.317z M163.577,59.21h-31.762V43.976l6.886-0.002v8.352h24.876   V59.21L163.577,59.21z M131.815,34.507V9.63h-26.168v33.054H65.706V27.447h6.886v8.351H98.76V2.745H138.7v31.762H131.815   L131.815,34.507z M65.706,26.156h-2.113H49.179V9.63H3.239V2.732c3.732,0.008,49.095,0.014,52.825,0.014v16.525h7.529h2.113h6.886   h3.833h5.81V9.63h-9.643v8.351h-6.886V2.745h23.414v23.411H76.425h-3.833H65.706L65.706,26.156z"></path>
</g>
</svg>