<svg xmlns="http://www.w3.org/2000/svg" xmlns:xlink="http://www.w3.org/1999/xlink" version="1.1" id="614813965" x="0px" y="0px" width="100%" height="100%" viewBox="0 0 175.803 175.804" enable-background="new 0 0 175.803 175.804" xml:space="preserve" preserveAspectRatio="none" class="element svg-element">
<path fill="#FBD6A0" d="M87.9,18.108c38.54,0,69.793,31.252,69.793,69.791c0,38.537-31.253,69.79-69.793,69.79  c-38.537,0-69.79-31.253-69.79-69.79C18.11,49.36,49.363,18.108,87.9,18.108L87.9,18.108z" style="fill: rgb(251, 214, 160);"></path>
<path fill="#842529" d="M27.432,137.12c0.674,0.814,1.371,1.617,2.072,2.411c-0.62,0.55-1.241,1.1-1.863,1.649  c-0.58-0.657-1.159-1.316-1.72-1.987c-0.56-0.666-1.107-1.351-1.645-2.029c-0.983,0.758-1.965,1.517-2.945,2.277  c-0.982,0.759-1.964,1.519-2.947,2.277c2.093,2.597,4.258,5.16,6.6,7.567s4.85,4.641,7.396,6.79c0.786-0.964,1.569-1.927,2.354-2.89  c0.784-0.963,1.567-1.927,2.352-2.89c-0.667-0.553-1.335-1.113-1.989-1.689c-0.655-0.577-1.301-1.173-1.945-1.77  c0.565-0.607,1.132-1.216,1.696-1.824c0.778,0.722,1.563,1.438,2.361,2.131c0.607,0.529,1.229,1.045,1.849,1.554  c0.396,0.325,0.796,0.639,1.204,0.947c0.65,0.49,1.305,0.977,1.971,1.448c0.86,0.613,1.742,1.207,2.626,1.794  c-0.458,0.691-0.916,1.384-1.373,2.076c-0.73-0.486-1.461-0.973-2.175-1.475c-0.714-0.501-1.419-1.02-2.115-1.535  c-0.754,0.987-1.505,1.973-2.257,2.961c-0.75,0.989-1.502,1.977-2.257,2.964c2.693,1.966,5.449,3.882,8.333,5.601  c2.887,1.72,5.887,3.227,8.901,4.643c0.511-1.134,1.018-2.266,1.525-3.399c0.509-1.132,1.019-2.266,1.525-3.398  c-0.787-0.362-1.578-0.731-2.359-1.119c-0.783-0.386-1.56-0.795-2.337-1.205c0.388-0.734,0.78-1.469,1.166-2.201  c0.938,0.494,1.883,0.983,2.833,1.447c1.972,0.96,3.816,1.748,5.873,2.514c0.991,0.369,1.997,0.716,3.001,1.054  c-0.264,0.784-0.524,1.573-0.789,2.358c-0.83-0.28-1.661-0.56-2.482-0.858c-0.818-0.301-1.633-0.62-2.439-0.938  c-0.473,1.147-0.942,2.296-1.412,3.444c-0.471,1.149-0.941,2.298-1.414,3.448c3.11,1.202,6.267,2.337,9.5,3.251  c3.231,0.916,6.52,1.596,9.798,2.184c0.201-1.229,0.397-2.452,0.597-3.679c0.196-1.227,0.394-2.453,0.591-3.679  c-0.853-0.147-1.714-0.299-2.568-0.47c-0.855-0.171-1.712-0.365-2.569-0.561c0.186-0.809,0.373-1.619,0.559-2.427  c1.033,0.235,2.071,0.463,3.109,0.663c0.791,0.154,1.586,0.291,2.379,0.422c0.505,0.082,1.007,0.154,1.515,0.218  c0.808,0.1,1.618,0.194,2.431,0.27c1.053,0.1,2.113,0.174,3.172,0.239c-0.052,0.827-0.103,1.658-0.152,2.484  c-0.876-0.055-1.752-0.11-2.621-0.189c-0.867-0.076-1.737-0.174-2.598-0.273c-0.16,1.232-0.317,2.463-0.474,3.694  c-0.155,1.232-0.313,2.462-0.473,3.695c3.315,0.355,6.658,0.637,10.018,0.684c3.357,0.046,6.71-0.148,10.029-0.428  c-0.125-1.239-0.251-2.473-0.379-3.71c-0.125-1.233-0.253-2.469-0.378-3.704c-0.863,0.078-1.733,0.156-2.604,0.211  c-0.869,0.056-1.747,0.091-2.624,0.125c-0.032-0.831-0.061-1.662-0.091-2.49c1.06-0.04,2.121-0.089,3.176-0.162  c2.183-0.155,4.187-0.396,6.344-0.761c1.044-0.176,2.086-0.379,3.127-0.589c0.163,0.813,0.33,1.625,0.494,2.438  c-0.859,0.173-1.72,0.346-2.578,0.495c-0.86,0.151-1.725,0.283-2.581,0.41c0.164,1.23,0.329,2.459,0.498,3.69  c0.168,1.23,0.335,2.46,0.501,3.69c3.293-0.515,6.596-1.107,9.852-1.931c3.257-0.824,6.443-1.88,9.577-3.01  c-0.44-1.163-0.882-2.324-1.325-3.484c-0.441-1.159-0.883-2.321-1.325-3.481c-0.813,0.3-1.633,0.599-2.46,0.879  c-0.826,0.277-1.664,0.538-2.504,0.799c-0.244-0.795-0.487-1.589-0.731-2.381c1.013-0.313,2.025-0.636,3.027-0.98  c0.759-0.263,1.519-0.541,2.27-0.825c0.477-0.181,0.951-0.367,1.419-0.568c0.75-0.317,1.499-0.641,2.241-0.981  c0.961-0.441,1.918-0.906,2.866-1.379c0.369,0.743,0.74,1.485,1.11,2.229c-0.786,0.39-1.571,0.778-2.362,1.146  c-0.792,0.368-1.593,0.72-2.388,1.064c0.479,1.146,0.956,2.29,1.437,3.435c0.481,1.145,0.96,2.29,1.438,3.438  c3.051-1.351,6.085-2.779,9.018-4.418c2.933-1.639,5.738-3.483,8.472-5.386c-0.727-1.009-1.451-2.015-2.18-3.021  c-0.728-1.006-1.455-2.014-2.183-3.02c-0.707,0.499-1.422,1.001-2.148,1.483c-0.725,0.483-1.468,0.952-2.211,1.421  c-0.441-0.703-0.884-1.409-1.325-2.111c0.899-0.564,1.795-1.137,2.67-1.729c1.819-1.227,3.424-2.43,5.115-3.829  c0.815-0.673,1.617-1.37,2.411-2.071c0.55,0.621,1.101,1.241,1.649,1.863c-0.657,0.579-1.316,1.159-1.985,1.719  c-0.67,0.561-1.354,1.105-2.031,1.645c0.759,0.982,1.518,1.966,2.277,2.945c0.761,0.983,1.52,1.965,2.278,2.947  c2.596-2.092,5.158-4.257,7.566-6.599c2.407-2.343,4.642-4.85,6.789-7.395c-0.963-0.787-1.926-1.571-2.889-2.354  c-0.962-0.785-1.927-1.568-2.888-2.353c-0.555,0.667-1.115,1.335-1.691,1.989c-0.577,0.655-1.173,1.299-1.768,1.944  c-0.609-0.564-1.218-1.132-1.826-1.695c0.722-0.777,1.439-1.563,2.132-2.36c0.528-0.61,1.046-1.229,1.554-1.85  c0.324-0.396,0.64-0.796,0.946-1.203c0.49-0.651,0.978-1.306,1.45-1.973c0.611-0.861,1.206-1.742,1.792-2.625  c0.691,0.458,1.384,0.915,2.074,1.373c-0.484,0.731-0.971,1.461-1.473,2.175c-0.501,0.715-1.02,1.419-1.536,2.115  c0.987,0.753,1.974,1.505,2.964,2.257c0.986,0.75,1.974,1.502,2.962,2.256c1.967-2.692,3.882-5.447,5.601-8.334  c1.721-2.886,3.228-5.885,4.645-8.898c-1.134-0.512-2.267-1.02-3.4-1.528c-1.132-0.508-2.266-1.017-3.398-1.524  c-0.363,0.788-0.73,1.578-1.118,2.359c-0.388,0.783-0.795,1.561-1.205,2.337c-0.734-0.388-1.47-0.779-2.202-1.166  c0.496-0.938,0.984-1.882,1.446-2.832c0.96-1.972,1.751-3.817,2.516-5.873c0.368-0.993,0.715-1.997,1.053-3.002  c0.786,0.265,1.573,0.525,2.36,0.789c-0.281,0.831-0.561,1.663-0.862,2.483c-0.299,0.818-0.616,1.633-0.936,2.438  c1.148,0.474,2.296,0.943,3.445,1.413c1.148,0.47,2.297,0.941,3.445,1.413c1.204-3.109,2.341-6.267,3.255-9.499  c0.914-3.231,1.594-6.52,2.183-9.798c-1.229-0.201-2.453-0.398-3.68-0.597c-1.226-0.197-2.453-0.394-3.678-0.591  c-0.146,0.854-0.299,1.714-0.47,2.568c-0.172,0.855-0.366,1.712-0.56,2.569c-0.81-0.186-1.62-0.373-2.428-0.558  c0.234-1.032,0.463-2.072,0.665-3.11c0.152-0.792,0.289-1.586,0.42-2.379c0.084-0.505,0.156-1.007,0.218-1.515  c0.1-0.808,0.194-1.618,0.27-2.432c0.1-1.052,0.174-2.112,0.241-3.171c0.826,0.051,1.654,0.103,2.484,0.153  c-0.057,0.874-0.113,1.751-0.19,2.62c-0.076,0.867-0.174,1.737-0.273,2.598c1.231,0.16,2.462,0.317,3.695,0.474  c1.23,0.155,2.461,0.313,3.694,0.473c0.355-3.316,0.637-6.658,0.683-10.018c0.048-3.357-0.146-6.71-0.427-10.03  c-1.237,0.125-2.473,0.252-3.708,0.378c-1.236,0.127-2.473,0.253-3.707,0.38c0.079,0.863,0.156,1.732,0.212,2.603  c0.057,0.871,0.091,1.748,0.123,2.626c-0.829,0.03-1.66,0.06-2.487,0.091c-0.042-1.06-0.089-2.122-0.165-3.176  c-0.153-2.189-0.393-4.181-0.759-6.345c-0.175-1.043-0.38-2.085-0.589-3.125c0.814-0.164,1.625-0.331,2.439-0.495  c0.174,0.858,0.345,1.72,0.497,2.578c0.149,0.86,0.281,1.725,0.408,2.581c1.231-0.164,2.461-0.331,3.691-0.499  c1.229-0.167,2.46-0.334,3.691-0.5c-0.514-3.293-1.109-6.596-1.934-9.853c-0.822-3.256-1.878-6.444-3.009-9.576  c-1.163,0.44-2.322,0.882-3.484,1.323c-1.158,0.442-2.32,0.885-3.48,1.326c0.3,0.813,0.599,1.632,0.879,2.459  c0.278,0.827,0.539,1.665,0.799,2.504c-0.795,0.245-1.589,0.489-2.382,0.731c-0.313-1.011-0.635-2.025-0.978-3.025  c-0.264-0.761-0.544-1.518-0.827-2.27c-0.181-0.479-0.367-0.951-0.568-1.421c-0.317-0.75-0.642-1.497-0.982-2.24  c-0.439-0.96-0.905-1.918-1.376-2.865c0.742-0.369,1.483-0.742,2.226-1.111c0.391,0.787,0.779,1.573,1.147,2.363  c0.367,0.792,0.717,1.593,1.064,2.389c1.145-0.479,2.291-0.957,3.435-1.438c1.145-0.48,2.289-0.96,3.438-1.438  c-1.351-3.05-2.779-6.086-4.418-9.017c-1.639-2.933-3.481-5.739-5.386-8.472c-1.01,0.726-2.014,1.451-3.022,2.18  c-1.006,0.727-2.013,1.455-3.02,2.183c0.5,0.707,1.003,1.42,1.484,2.147c0.485,0.727,0.953,1.469,1.421,2.212  c-0.703,0.441-1.408,0.882-2.11,1.323c-0.565-0.896-1.139-1.792-1.729-2.668c-1.227-1.816-2.436-3.429-3.83-5.115  c-0.674-0.814-1.372-1.616-2.074-2.411c0.622-0.55,1.244-1.102,1.865-1.649c0.58,0.656,1.159,1.316,1.719,1.985  c0.559,0.669,1.107,1.353,1.645,2.03c0.981-0.758,1.965-1.516,2.946-2.276c0.98-0.761,1.963-1.521,2.946-2.278  c-2.093-2.596-4.258-5.159-6.601-7.567c-2.342-2.406-4.85-4.641-7.393-6.789c-0.788,0.963-1.572,1.926-2.356,2.889  c-0.784,0.962-1.567,1.928-2.353,2.889c0.667,0.555,1.336,1.115,1.99,1.691c0.654,0.577,1.301,1.171,1.944,1.769  c-0.565,0.608-1.133,1.218-1.695,1.824c-0.778-0.72-1.564-1.437-2.36-2.131c-0.608-0.528-1.23-1.045-1.85-1.554  c-0.396-0.323-0.798-0.639-1.204-0.945c-0.65-0.49-1.306-0.977-1.971-1.45c-0.862-0.611-1.744-1.206-2.626-1.792  c0.458-0.691,0.916-1.385,1.373-2.074c0.731,0.484,1.46,0.971,2.175,1.473c0.714,0.5,1.419,1.02,2.114,1.536  c0.754-0.987,1.506-1.974,2.256-2.964c0.75-0.986,1.504-1.974,2.258-2.962c-2.692-1.968-5.447-3.882-8.334-5.601  c-2.885-1.721-5.884-3.229-8.898-4.645c-0.512,1.134-1.02,2.266-1.528,3.4c-0.507,1.132-1.017,2.266-1.523,3.399  c0.786,0.362,1.577,0.729,2.359,1.117c0.782,0.387,1.559,0.796,2.337,1.205c-0.39,0.735-0.778,1.47-1.166,2.202  c-0.939-0.496-1.883-0.984-2.833-1.447c-1.972-0.961-3.816-1.748-5.873-2.516c-0.991-0.367-1.998-0.714-3.003-1.052  c0.266-0.785,0.528-1.573,0.79-2.36c0.831,0.28,1.663,0.562,2.483,0.86c0.818,0.3,1.633,0.62,2.439,0.936  c0.472-1.148,0.944-2.297,1.412-3.445c0.471-1.148,0.941-2.297,1.414-3.446c-3.11-1.202-6.268-2.337-9.5-3.253  c-3.232-0.914-6.52-1.594-9.798-2.183c-0.201,1.228-0.398,2.453-0.596,3.68c-0.197,1.226-0.395,2.452-0.592,3.677  c0.854,0.148,1.712,0.299,2.567,0.471c0.856,0.17,1.713,0.364,2.569,0.56c-0.185,0.809-0.372,1.62-0.557,2.428  c-1.034-0.234-2.072-0.463-3.111-0.663c-0.789-0.154-1.585-0.291-2.378-0.422c-0.505-0.084-1.009-0.156-1.515-0.219  c-0.808-0.1-1.618-0.193-2.432-0.27c-1.052-0.1-2.112-0.173-3.17-0.239c0.05-0.827,0.101-1.655,0.151-2.483  c0.875,0.055,1.752,0.109,2.62,0.188c0.868,0.077,1.736,0.174,2.6,0.273c0.157-1.231,0.316-2.463,0.473-3.694  c0.156-1.231,0.313-2.461,0.473-3.694C95.692,0.33,92.347,0.05,88.988,0.003s-6.71,0.147-10.029,0.428  c0.125,1.237,0.251,2.473,0.377,3.708c0.127,1.235,0.253,2.471,0.38,3.705c0.863-0.077,1.731-0.155,2.603-0.211  c0.871-0.056,1.748-0.091,2.627-0.124c0.029,0.83,0.06,1.662,0.09,2.49c-1.06,0.041-2.122,0.088-3.176,0.162  c-2.187,0.154-4.184,0.394-6.346,0.761c-1.042,0.175-2.084,0.378-3.124,0.589c-0.164-0.814-0.332-1.627-0.496-2.439  c0.86-0.173,1.719-0.346,2.581-0.496c0.858-0.15,1.723-0.281,2.579-0.409c-0.164-1.23-0.33-2.46-0.499-3.691  c-0.166-1.23-0.333-2.459-0.498-3.691C72.762,1.3,69.46,1.894,66.203,2.718c-3.257,0.825-6.444,1.88-9.577,3.011  c0.439,1.162,0.881,2.321,1.324,3.482c0.441,1.16,0.884,2.322,1.326,3.481c0.812-0.299,1.632-0.598,2.458-0.877  c0.828-0.279,1.666-0.539,2.506-0.799c0.243,0.793,0.486,1.589,0.731,2.381c-1.015,0.313-2.026,0.635-3.025,0.98  c-0.763,0.262-1.52,0.539-2.271,0.823c-0.479,0.183-0.951,0.37-1.421,0.568c-0.749,0.319-1.498,0.644-2.24,0.983  c-0.962,0.44-1.917,0.906-2.865,1.377c-0.37-0.742-0.742-1.484-1.11-2.227c0.784-0.39,1.57-0.779,2.362-1.147  c0.79-0.367,1.593-0.719,2.389-1.063c-0.479-1.146-0.957-2.29-1.438-3.435c-0.485-1.14-0.962-2.286-1.442-3.433  c-3.048,1.351-6.086,2.779-9.019,4.418c-2.931,1.639-5.736,3.482-8.47,5.385c0.726,1.01,1.452,2.015,2.181,3.023  c0.728,1.004,1.454,2.013,2.182,3.018c0.707-0.498,1.422-1.001,2.147-1.482c0.726-0.485,1.468-0.953,2.212-1.421  c0.441,0.702,0.882,1.408,1.323,2.11c-0.896,0.564-1.792,1.137-2.668,1.728c-1.819,1.228-3.423,2.43-5.115,3.83  c-0.816,0.674-1.617,1.371-2.413,2.072c-0.548-0.622-1.1-1.242-1.647-1.863c0.657-0.58,1.316-1.159,1.985-1.719  c0.67-0.56,1.353-1.106,2.031-1.646c-0.759-0.981-1.517-1.964-2.277-2.945c-0.761-0.98-1.519-1.963-2.278-2.946  c-2.596,2.091-5.159,4.257-7.566,6.599c-2.409,2.342-4.642,4.849-6.789,7.395c0.963,0.788,1.924,1.571,2.889,2.356  c0.961,0.783,1.925,1.567,2.888,2.353c0.555-0.667,1.115-1.336,1.691-1.99c0.576-0.655,1.173-1.301,1.769-1.944  c0.609,0.564,1.218,1.131,1.825,1.695c-0.721,0.776-1.438,1.563-2.132,2.36c-0.526,0.608-1.043,1.229-1.554,1.85  c-0.323,0.396-0.639,0.795-0.945,1.204c-0.49,0.65-0.978,1.305-1.45,1.97c-0.611,0.863-1.205,1.745-1.792,2.627  c-0.692-0.458-1.384-0.916-2.075-1.374c0.485-0.73,0.972-1.46,1.474-2.174c0.501-0.715,1.019-1.419,1.536-2.115  c-0.987-0.753-1.974-1.506-2.964-2.257c-0.986-0.75-1.975-1.503-2.962-2.257c-1.966,2.693-3.882,5.448-5.602,8.335  c-1.719,2.885-3.226,5.885-4.643,8.899c1.134,0.512,2.267,1.018,3.4,1.528c1.132,0.507,2.266,1.016,3.398,1.523  c0.362-0.786,0.731-1.577,1.118-2.359c0.387-0.78,0.796-1.558,1.205-2.336c0.734,0.388,1.469,0.778,2.202,1.166  c-0.496,0.938-0.984,1.883-1.446,2.833c-0.96,1.967-1.752,3.822-2.516,5.873c-0.368,0.992-0.715,1.997-1.053,3.001  c-0.786-0.264-1.574-0.526-2.358-0.789c0.278-0.83,0.56-1.662,0.858-2.482c0.301-0.818,0.618-1.633,0.937-2.438  c-1.148-0.473-2.297-0.945-3.445-1.414c-1.15-0.47-2.297-0.941-3.447-1.412c-1.202,3.109-2.339,6.267-3.253,9.498  c-0.914,3.232-1.594,6.521-2.183,9.799c1.229,0.201,2.453,0.398,3.68,0.596c1.226,0.197,2.452,0.394,3.678,0.592  c0.147-0.854,0.299-1.714,0.47-2.568c0.172-0.856,0.364-1.712,0.56-2.568c0.81,0.185,1.62,0.372,2.428,0.557  c-0.235,1.034-0.463,2.072-0.665,3.108c-0.152,0.792-0.291,1.589-0.42,2.381c-0.084,0.505-0.156,1.008-0.218,1.515  c-0.1,0.808-0.193,1.618-0.271,2.432c-0.098,1.052-0.172,2.112-0.238,3.171c-0.828-0.053-1.657-0.102-2.483-0.152  c0.055-0.877,0.11-1.752,0.188-2.62c0.076-0.868,0.174-1.738,0.273-2.6c-1.232-0.158-2.463-0.316-3.695-0.473  c-1.23-0.156-2.461-0.315-3.694-0.473c-0.355,3.314-0.637,6.659-0.683,10.017s0.147,6.711,0.428,10.03  c1.237-0.124,2.472-0.251,3.708-0.379c1.234-0.125,2.471-0.252,3.705-0.38c-0.078-0.861-0.156-1.729-0.21-2.601  c-0.057-0.871-0.091-1.748-0.124-2.627c0.83-0.03,1.66-0.06,2.488-0.091c0.041,1.06,0.089,2.122,0.163,3.177  c0.155,2.188,0.394,4.179,0.76,6.344c0.176,1.044,0.38,2.086,0.59,3.125c-0.813,0.165-1.627,0.332-2.44,0.496  c-0.172-0.859-0.345-1.718-0.495-2.58c-0.15-0.859-0.281-1.724-0.408-2.58c-1.231,0.165-2.461,0.33-3.69,0.499  c-1.229,0.167-2.46,0.334-3.69,0.499c0.513,3.295,1.106,6.597,1.931,9.854s1.88,6.443,3.01,9.577  c1.164-0.44,2.323-0.882,3.484-1.324c1.159-0.441,2.321-0.885,3.48-1.326c-0.299-0.813-0.598-1.633-0.878-2.458  c-0.278-0.828-0.539-1.666-0.799-2.506c0.793-0.244,1.589-0.487,2.382-0.732c0.312,1.013,0.635,2.025,0.979,3.025  c0.262,0.763,0.541,1.519,0.825,2.271c0.18,0.479,0.367,0.951,0.568,1.42c0.317,0.75,0.641,1.5,0.981,2.242  c0.44,0.96,0.906,1.917,1.377,2.865c-0.74,0.37-1.483,0.742-2.227,1.11c-0.391-0.784-0.778-1.572-1.148-2.362  c-0.366-0.791-0.718-1.593-1.062-2.389c-1.146,0.479-2.29,0.957-3.436,1.438c-1.144,0.48-2.289,0.959-3.435,1.438  c1.348,3.05,2.776,6.086,4.414,9.018c1.641,2.932,3.485,5.736,5.388,8.471c1.008-0.726,2.016-1.453,3.021-2.181  c1.007-0.727,2.014-1.455,3.019-2.182c-0.499-0.707-1.002-1.422-1.483-2.148c-0.485-0.727-0.953-1.469-1.421-2.212  c0.703-0.442,1.408-0.882,2.11-1.324c0.565,0.897,1.138,1.792,1.729,2.669C24.825,133.815,26.042,135.44,27.432,137.12  L27.432,137.12z M129.572,150.826c-1.204,0.785-2.436,1.532-3.679,2.267c0.629,1.074,1.255,2.149,1.884,3.226  c0.626,1.074,1.251,2.151,1.878,3.227c1.558-0.923,3.095-1.876,4.607-2.859c0.464,0.688,0.927,1.378,1.393,2.064  c-1.927,1.355-3.914,2.546-5.95,3.684c-2.034,1.137-4.093,2.21-6.228,3.136c-0.348-0.752-0.693-1.508-1.036-2.261  c1.628-0.78,3.242-1.593,4.846-2.437c-0.594-1.095-1.186-2.19-1.776-3.287c-0.591-1.093-1.181-2.189-1.773-3.282  c-1.273,0.675-2.553,1.339-3.848,1.956c-1.059,0.507-2.126,0.98-3.198,1.445c-0.537,0.232-1.085,0.448-1.636,0.65  c-1.056,0.386-2.115,0.765-3.189,1.113c-1.366,0.447-2.749,0.849-4.139,1.236c0.33,1.2,0.657,2.401,0.984,3.603  c0.328,1.202,0.652,2.403,0.979,3.605c1.743-0.489,3.475-1.013,5.189-1.568c0.27,0.782,0.539,1.568,0.81,2.354  c-2.21,0.808-4.438,1.444-6.699,2.016c-2.259,0.571-4.525,1.074-6.827,1.418c-0.14-0.818-0.28-1.636-0.417-2.453  c1.774-0.331,3.545-0.697,5.312-1.101c-0.29-1.209-0.578-2.421-0.864-3.631c-0.286-1.21-0.574-2.421-0.863-3.632  c-1.404,0.321-2.812,0.633-4.224,0.895c-2.867,0.533-5.67,0.868-8.58,1.023c-1.437,0.076-2.874,0.107-4.317,0.122  c0.007,1.246,0.012,2.49,0.018,3.735c0.005,1.245,0.008,2.489,0.014,3.734c1.811-0.022,3.619-0.079,5.418-0.172  c0.059,0.825,0.114,1.653,0.173,2.482c-2.344,0.209-4.659,0.248-6.993,0.215c-2.329-0.033-4.647-0.133-6.961-0.397  c0.077-0.827,0.153-1.652,0.231-2.478c1.801,0.139,3.606,0.244,5.416,0.312c0.033-1.243,0.068-2.488,0.104-3.732  c0.036-1.242,0.071-2.486,0.106-3.73c-1.44-0.053-2.88-0.116-4.312-0.23c-1.168-0.092-2.33-0.214-3.492-0.349  c-0.582-0.067-1.163-0.153-1.742-0.254c-1.105-0.191-2.212-0.396-3.316-0.631c-1.407-0.296-2.806-0.64-4.203-0.999  c-0.315,1.205-0.633,2.407-0.949,3.612c-0.318,1.205-0.639,2.408-0.955,3.61c1.755,0.449,3.516,0.861,5.279,1.235  c-0.156,0.813-0.317,1.63-0.477,2.445c-2.317-0.403-4.565-0.967-6.811-1.602c-2.24-0.636-4.453-1.333-6.62-2.189  c0.288-0.778,0.576-1.557,0.864-2.331c1.703,0.599,3.42,1.168,5.15,1.702c0.354-1.191,0.711-2.384,1.067-3.577  c0.357-1.191,0.714-2.385,1.068-3.576c-1.376-0.424-2.752-0.857-4.105-1.337c-2.765-0.979-5.33-2.079-7.939-3.403  c-1.283-0.652-2.545-1.346-3.803-2.054c-0.615,1.083-1.234,2.162-1.851,3.243c-0.618,1.08-1.237,2.16-1.856,3.241  c1.579,0.888,3.174,1.741,4.78,2.56c-0.364,0.744-0.728,1.49-1.093,2.237c-2.134-0.989-4.16-2.116-6.163-3.311  c-2.001-1.192-3.959-2.439-5.829-3.825c0.479-0.679,0.957-1.354,1.438-2.03c1.49,1.02,3.002,2.015,4.533,2.979  c0.651-1.06,1.305-2.12,1.959-3.18c0.651-1.059,1.306-2.118,1.955-3.18c-1.22-0.765-2.436-1.54-3.619-2.354  c-0.966-0.662-1.911-1.351-2.847-2.046c-0.473-0.351-0.933-0.717-1.384-1.093c-0.862-0.72-1.719-1.449-2.559-2.203  c-1.07-0.962-2.109-1.958-3.14-2.967c-0.875,0.885-1.752,1.768-2.628,2.652c-0.877,0.885-1.755,1.767-2.631,2.651  c1.294,1.266,2.614,2.502,3.953,3.708c-0.543,0.627-1.09,1.252-1.635,1.88c-1.806-1.508-3.47-3.121-5.097-4.794  c-1.623-1.671-3.192-3.381-4.641-5.205c0.638-0.529,1.276-1.058,1.916-1.586c1.174,1.371,2.378,2.72,3.608,4.05  c0.901-0.856,1.808-1.71,2.713-2.564c0.904-0.854,1.81-1.707,2.713-2.564c-0.98-1.056-1.954-2.119-2.887-3.211  c-1.891-2.21-3.588-4.48-5.174-6.918c-0.785-1.205-1.531-2.435-2.267-3.678c-1.074,0.629-2.15,1.255-3.226,1.883  c-1.075,0.626-2.151,1.251-3.228,1.878c0.924,1.56,1.878,3.094,2.858,4.607c-0.685,0.463-1.376,0.927-2.064,1.391  c-1.353-1.924-2.544-3.912-3.682-5.948c-1.137-2.034-2.21-4.092-3.136-6.227c0.754-0.348,1.506-0.694,2.26-1.04  c0.781,1.628,1.593,3.243,2.438,4.847c1.094-0.592,2.19-1.185,3.285-1.775c1.094-0.59,2.189-1.181,3.283-1.773  c-0.675-1.272-1.34-2.553-1.958-3.848c-0.505-1.057-0.978-2.128-1.442-3.198c-0.233-0.538-0.449-1.085-0.652-1.636  c-0.387-1.054-0.763-2.115-1.112-3.188c-0.447-1.366-0.85-2.749-1.236-4.14c-1.201,0.33-2.401,0.655-3.604,0.984  c-1.2,0.327-2.401,0.651-3.602,0.978c0.488,1.743,1.013,3.475,1.568,5.19c-0.782,0.271-1.568,0.538-2.355,0.81  c-0.808-2.209-1.445-4.438-2.018-6.699c-0.57-2.259-1.074-4.523-1.416-6.827c0.817-0.141,1.636-0.28,2.453-0.418  c0.331,1.775,0.699,3.546,1.1,5.312c1.21-0.289,2.421-0.576,3.632-0.864c1.21-0.286,2.422-0.573,3.631-0.862  c-0.321-1.404-0.633-2.813-0.896-4.226c-0.534-2.881-0.865-5.655-1.021-8.578c-0.077-1.435-0.107-2.874-0.122-4.317  c-1.246,0.007-2.49,0.014-3.735,0.018c-1.244,0.005-2.489,0.008-3.735,0.013c0.022,1.812,0.08,3.619,0.174,5.42  c-0.826,0.058-1.654,0.114-2.484,0.174c-0.21-2.345-0.247-4.661-0.215-6.995c0.033-2.329,0.133-4.647,0.398-6.961  c0.826,0.075,1.652,0.153,2.476,0.231c-0.137,1.801-0.24,3.604-0.311,5.415c1.244,0.034,2.488,0.07,3.732,0.105  c1.242,0.035,2.486,0.071,3.73,0.106c0.054-1.439,0.116-2.882,0.229-4.312c0.091-1.167,0.214-2.331,0.349-3.488  c0.067-0.585,0.153-1.166,0.253-1.745c0.193-1.107,0.397-2.214,0.631-3.317c0.297-1.406,0.639-2.805,0.998-4.202  c-1.203-0.315-2.407-0.633-3.612-0.949c-1.204-0.316-2.406-0.636-3.609-0.955c-0.448,1.755-0.86,3.517-1.236,5.279  c-0.813-0.157-1.628-0.317-2.443-0.476c0.403-2.318,0.966-4.566,1.602-6.812c0.635-2.24,1.332-4.455,2.188-6.621  c0.776,0.289,1.555,0.577,2.33,0.865c-0.599,1.703-1.167,3.42-1.701,5.151c1.191,0.354,2.384,0.71,3.577,1.066  c1.19,0.357,2.383,0.715,3.576,1.069c0.424-1.379,0.857-2.754,1.337-4.106c0.972-2.748,2.084-5.343,3.403-7.94  c0.652-1.282,1.346-2.544,2.054-3.802c-1.083-0.615-2.162-1.233-3.244-1.852c-1.079-0.618-2.159-1.238-3.24-1.855  c-0.889,1.578-1.739,3.174-2.559,4.778c-0.746-0.361-1.492-0.728-2.238-1.092c0.991-2.134,2.117-4.16,3.312-6.164  c1.192-1.999,2.439-3.958,3.825-5.828c0.677,0.478,1.355,0.959,2.028,1.438c-1.018,1.491-2.013,3.002-2.977,4.535  c1.06,0.65,2.12,1.304,3.18,1.956c1.059,0.653,2.118,1.307,3.179,1.958c0.766-1.22,1.541-2.436,2.354-3.62  c0.663-0.966,1.351-1.909,2.047-2.848c0.351-0.473,0.717-0.933,1.092-1.383c0.721-0.862,1.45-1.719,2.204-2.558  c0.962-1.07,1.958-2.109,2.968-3.141c-0.886-0.875-1.77-1.752-2.654-2.628c-0.884-0.877-1.766-1.756-2.65-2.633  c-1.266,1.297-2.502,2.615-3.708,3.954c-0.626-0.542-1.252-1.089-1.88-1.634c1.508-1.806,3.121-3.471,4.793-5.096  c1.67-1.626,3.381-3.193,5.204-4.643c0.529,0.639,1.06,1.278,1.588,1.916c-1.371,1.175-2.72,2.379-4.051,3.607  c0.855,0.904,1.71,1.81,2.565,2.715c0.854,0.904,1.709,1.81,2.563,2.713c1.056-0.98,2.119-1.955,3.211-2.887  c2.229-1.905,4.464-3.578,6.917-5.176c1.206-0.785,2.437-1.531,3.68-2.265c-0.63-1.074-1.256-2.15-1.884-3.225  c-0.627-1.075-1.251-2.153-1.878-3.229c-1.56,0.923-3.095,1.878-4.608,2.858c-0.464-0.686-0.927-1.376-1.391-2.064  c1.924-1.355,3.912-2.545,5.948-3.682c2.034-1.137,4.092-2.21,6.226-3.137c0.348,0.754,0.693,1.508,1.038,2.261  c-1.626,0.781-3.243,1.593-4.846,2.438c0.593,1.095,1.186,2.189,1.776,3.285c0.59,1.095,1.181,2.191,1.773,3.284  c1.272-0.675,2.553-1.34,3.848-1.958c1.057-0.505,2.126-0.979,3.198-1.442c0.538-0.234,1.085-0.449,1.636-0.652  c1.054-0.387,2.115-0.764,3.188-1.112c1.366-0.447,2.75-0.85,4.139-1.236c-0.329-1.2-0.656-2.401-0.983-3.603  c-0.328-1.201-0.651-2.404-0.978-3.604c-1.745,0.488-3.476,1.013-5.191,1.568c-0.27-0.782-0.539-1.568-0.809-2.354  c2.208-0.809,4.438-1.445,6.7-2.016c2.258-0.572,4.522-1.076,6.826-1.417c0.14,0.817,0.28,1.634,0.417,2.45  c-1.774,0.333-3.545,0.699-5.312,1.102c0.29,1.209,0.576,2.421,0.864,3.633c0.287,1.209,0.574,2.42,0.863,3.63  c1.406-0.321,2.812-0.633,4.226-0.893c2.855-0.532,5.675-0.869,8.576-1.024c1.437-0.077,2.876-0.107,4.319-0.123  c-0.007-1.245-0.012-2.489-0.018-3.734c-0.005-1.246-0.008-2.49-0.014-3.735c-1.811,0.02-3.617,0.079-5.419,0.174  c-0.058-0.827-0.114-1.656-0.174-2.483c2.345-0.211,4.661-0.248,6.993-0.215c2.331,0.032,4.649,0.132,6.963,0.398  c-0.075,0.826-0.153,1.65-0.231,2.475c-1.801-0.137-3.605-0.242-5.417-0.311c-0.032,1.242-0.068,2.486-0.105,3.733  c-0.034,1.242-0.069,2.488-0.104,3.73c1.438,0.053,2.88,0.115,4.312,0.229c1.167,0.092,2.329,0.216,3.488,0.35  c0.585,0.066,1.166,0.153,1.745,0.254c1.105,0.191,2.212,0.396,3.316,0.631c1.407,0.295,2.806,0.639,4.203,0.997  c0.314-1.204,0.632-2.407,0.949-3.612c0.316-1.203,0.637-2.406,0.953-3.609c-1.753-0.449-3.515-0.861-5.277-1.236  c0.157-0.813,0.316-1.629,0.475-2.443c2.319,0.403,4.567,0.967,6.811,1.602c2.242,0.636,4.457,1.332,6.62,2.187  c-0.285,0.78-0.574,1.557-0.864,2.332c-1.702-0.599-3.419-1.167-5.148-1.702c-0.355,1.191-0.711,2.385-1.067,3.578  c-0.357,1.191-0.716,2.385-1.069,3.577c1.379,0.423,2.753,0.856,4.106,1.335c2.764,0.979,5.33,2.08,7.941,3.404  c1.28,0.652,2.543,1.346,3.799,2.053c0.617-1.082,1.235-2.162,1.854-3.242c0.617-1.082,1.238-2.16,1.855-3.241  c-1.578-0.888-3.174-1.741-4.78-2.562c0.363-0.742,0.729-1.488,1.093-2.236c2.135,0.99,4.159,2.115,6.164,3.311  c2.001,1.193,3.959,2.44,5.829,3.826c-0.479,0.678-0.959,1.354-1.438,2.029c-1.49-1.02-3.001-2.014-4.534-2.979  c-0.65,1.059-1.304,2.12-1.956,3.18c-0.653,1.059-1.307,2.118-1.958,3.18c1.22,0.764,2.435,1.539,3.62,2.354  c0.966,0.663,1.909,1.35,2.848,2.047c0.472,0.348,0.932,0.715,1.383,1.091c0.862,0.721,1.719,1.45,2.557,2.204  c1.07,0.962,2.111,1.958,3.142,2.966c0.875-0.884,1.752-1.768,2.628-2.653c0.878-0.883,1.755-1.766,2.631-2.65  c-1.295-1.266-2.614-2.502-3.953-3.707c0.543-0.628,1.09-1.252,1.635-1.88c1.806,1.509,3.47,3.121,5.095,4.793  c1.625,1.67,3.194,3.381,4.642,5.205c-0.64,0.529-1.277,1.059-1.916,1.587c-1.174-1.371-2.378-2.72-3.608-4.051  c-0.902,0.856-1.808,1.712-2.713,2.565c-0.904,0.853-1.81,1.707-2.713,2.563c0.98,1.056,1.953,2.119,2.887,3.211  c1.892,2.215,3.585,4.476,5.174,6.918c0.785,1.204,1.532,2.436,2.268,3.677c1.073-0.627,2.149-1.255,3.224-1.882  c1.075-0.626,2.154-1.252,3.229-1.88c-0.924-1.557-1.878-3.094-2.858-4.605c0.686-0.464,1.375-0.927,2.064-1.393  c1.352,1.926,2.544,3.914,3.682,5.95c1.136,2.032,2.21,4.093,3.136,6.229c-0.754,0.346-1.508,0.693-2.26,1.036  c-0.781-1.628-1.593-3.243-2.439-4.846c-1.094,0.594-2.189,1.184-3.284,1.776c-1.095,0.591-2.19,1.181-3.284,1.772  c0.674,1.274,1.339,2.554,1.958,3.849c0.505,1.057,0.979,2.126,1.442,3.197c0.233,0.538,0.449,1.086,0.652,1.636  c0.385,1.055,0.763,2.115,1.112,3.188c0.447,1.368,0.849,2.75,1.236,4.14c1.201-0.329,2.401-0.656,3.603-0.983  c1.201-0.328,2.403-0.653,3.604-0.979c-0.488-1.744-1.014-3.476-1.568-5.19c0.782-0.27,1.567-0.539,2.354-0.81  c0.809,2.208,1.446,4.438,2.017,6.698c0.572,2.26,1.076,4.525,1.418,6.828c-0.817,0.14-1.636,0.28-2.452,0.417  c-0.332-1.774-0.698-3.545-1.101-5.312c-1.21,0.29-2.421,0.578-3.633,0.863c-1.209,0.288-2.421,0.575-3.63,0.864  c0.32,1.404,0.633,2.812,0.894,4.226c0.536,2.881,0.867,5.654,1.023,8.577c0.077,1.436,0.108,2.875,0.121,4.318  c1.247-0.007,2.491-0.012,3.736-0.019c1.245-0.004,2.489-0.007,3.733-0.013c-0.02-1.812-0.078-3.619-0.172-5.418  c0.826-0.061,1.654-0.114,2.483-0.175c0.211,2.344,0.247,4.661,0.215,6.994c-0.032,2.33-0.132,4.648-0.398,6.962  c-0.826-0.077-1.651-0.154-2.475-0.232c0.137-1.8,0.24-3.605,0.311-5.415c-1.243-0.033-2.486-0.068-3.733-0.104  c-1.241-0.037-2.487-0.073-3.729-0.106c-0.053,1.439-0.116,2.881-0.23,4.311c-0.09,1.169-0.215,2.332-0.349,3.49  c-0.065,0.584-0.153,1.166-0.254,1.745c-0.191,1.105-0.396,2.212-0.629,3.316c-0.298,1.407-0.641,2.807-1.001,4.203  c1.205,0.313,2.409,0.633,3.612,0.949c1.205,0.317,2.406,0.637,3.611,0.955c0.448-1.756,0.86-3.516,1.236-5.279  c0.813,0.157,1.628,0.317,2.443,0.475c-0.403,2.319-0.967,4.566-1.604,6.812c-0.634,2.24-1.33,4.454-2.184,6.621  c-0.778-0.289-1.557-0.577-2.332-0.865c0.599-1.703,1.166-3.42,1.701-5.149c-1.192-0.355-2.386-0.711-3.578-1.068  c-1.191-0.357-2.384-0.715-3.576-1.067c-0.425,1.377-0.856,2.751-1.336,4.105c-0.972,2.745-2.084,5.344-3.403,7.939  c-0.652,1.283-1.346,2.545-2.054,3.801c1.083,0.617,2.162,1.236,3.243,1.853c1.08,0.618,2.16,1.237,3.241,1.857  c0.888-1.579,1.741-3.175,2.561-4.78c0.745,0.362,1.491,0.729,2.237,1.092c-0.991,2.135-2.117,4.161-3.312,6.164  c-1.192,2.001-2.439,3.959-3.825,5.829c-0.677-0.48-1.354-0.958-2.029-1.439c1.02-1.489,2.014-3.002,2.979-4.533  c-1.061-0.651-2.12-1.305-3.182-1.959c-1.057-0.651-2.116-1.306-3.178-1.956c-0.765,1.221-1.54,2.436-2.353,3.62  c-0.662,0.966-1.35,1.911-2.048,2.847c-0.349,0.474-0.715,0.932-1.089,1.383c-0.721,0.862-1.451,1.719-2.205,2.558  c-0.962,1.07-1.957,2.11-2.967,3.142c0.885,0.875,1.768,1.753,2.652,2.628c0.885,0.877,1.766,1.755,2.65,2.633  c1.267-1.297,2.504-2.615,3.711-3.955c0.626,0.543,1.25,1.09,1.879,1.635c-1.511,1.805-3.122,3.471-4.794,5.096  c-1.67,1.624-3.381,3.192-5.204,4.642c-0.532-0.639-1.06-1.277-1.588-1.916c1.371-1.176,2.72-2.378,4.051-3.607  c-0.856-0.903-1.712-1.809-2.565-2.714c-0.854-0.905-1.709-1.81-2.562-2.715c-1.057,0.982-2.12,1.955-3.212,2.889  C134.263,147.558,132.025,149.23,129.572,150.826L129.572,150.826z M90.438,106.004V69.801l57.213-0.002  c0.859,2.835,1.523,5.752,1.974,8.741h-0.051c0.473,3.129,0.75,6.204,0.75,9.363c0,6.294-0.933,12.372-2.667,18.101  c-14.52,0-29.042,0-43.563,0c0-7.49,0-14.979,0-22.472c9.648,0,22.892,0,32.54,0v8.74h-23.841v4.993h27.977  c0.549-3.133,0.939-6.158,0.939-9.362c0-3.195-0.28-6.323-0.816-9.363H99.138v27.464H90.438L90.438,106.004z M76.667,106.004V78.54  H34.909c-0.534,3.04-0.815,6.168-0.815,9.363c0,3.31,0.383,6.197,0.939,9.362h27.863v-4.993H39.168v-8.74c9.648,0,22.779,0,32.428,0  v0.024v22.447h-43.45c-1.734-5.729-2.669-11.807-2.669-18.101c0-3.157,0.279-6.235,0.752-9.363h-0.052  c0.451-2.989,1.115-5.906,1.975-8.741h57.214v36.205L76.667,106.004L76.667,106.004z M29.899,64.807  c8.892-22.306,30.275-38.281,55.505-39.273c0,8.514,0,17.025,0,25.54c-9.782,0-19.564,0-29.348,0  c5.826-5.041,12.859-8.722,20.609-10.554v-5.118C63.622,38.18,52.331,45.698,44.681,56.067c28.813,0,57.629,0,86.443,0  c-7.651-10.369-18.942-17.888-31.986-20.666v5.118c7.749,1.832,14.783,5.513,20.609,10.554c-9.784,0-19.565,0-29.348,0  c0-8.515,0-17.026,0-25.54c25.229,0.992,46.613,16.968,55.505,39.273C107.236,64.807,68.567,64.807,29.899,64.807L29.899,64.807z   M145.905,110.999c-5.099,12.789-14.438,23.662-26.278,30.665c0,0.427-7.69,3.876-9.046,4.405c-2.865,1.028-5.694,1.989-8.67,2.672  c-3.778,0.866-7.64,1.378-11.512,1.529v-25.54c9.782,0,19.563,0,29.348,0c-5.826,5.041-12.86,8.722-20.609,10.553v5.119  c12.788-2.725,24.249-10.174,31.984-20.666c-28.813,0-57.627,0-86.438,0c7.734,10.492,19.192,17.941,31.982,20.666v-5.119  c-7.75-1.831-14.783-5.512-20.609-10.553c9.783,0,19.565,0,29.348,0v25.54c-9.425,0-22.532-3.952-30.182-9.183  c-11.021-7.535-20.322-17.543-25.324-30.089C68.567,110.999,107.236,110.999,145.905,110.999L145.905,110.999z" style="fill: rgb(132, 37, 41);"></path>
</svg>