<svg xmlns="http://www.w3.org/2000/svg" xmlns:xlink="http://www.w3.org/1999/xlink" version="1.1" id="4828266197" x="0px" y="0px" width="100%" height="100%" viewBox="0 0 85.33 12.743" enable-background="new 0 0 85.33 12.743" xml:space="preserve" preserveAspectRatio="none" class="element svg-element">
<path fill="#4B0000" d="M12.408,2.279c0,0.455-0.398,0.904-1.201,1.346c-0.607,0.332-1.295,0.6-2.061,0.799  c-0.596,1.361-1.068,2.217-1.42,2.568C7.111,7.607,6.633,7.969,6.287,8.08c0.297,0.18,0.525,0.27,0.684,0.27  c0.359,0,0.805-0.254,1.336-0.756v0.123C7.844,8.201,7.398,8.441,6.971,8.441c-0.215,0-0.494-0.104-0.84-0.311  c-0.213,0.117-0.41,0.178-0.59,0.178c-0.221,0-0.332-0.094-0.332-0.275c0-0.189,0.115-0.285,0.342-0.285  c0.133,0,0.318,0.07,0.561,0.207c0.324-0.264,0.512-0.42,0.559-0.477C6.795,7.35,6.908,7.182,7.012,6.977s0.436-1.002,0.994-2.398  L6.225,4.93c-0.076,0.207-0.195,0.51-0.352,0.904C5.713,6.23,5.461,6.615,5.117,6.986c-0.83,0.881-1.824,1.322-2.984,1.322  c-0.275,0-0.514-0.061-0.715-0.178C1.246,8.539,1.16,8.98,1.16,9.459c0,0.932,0.295,1.684,0.891,2.256  c0.51,0.492,1.094,0.736,1.75,0.736c0.967,0,1.598-0.436,1.896-1.305l0.104-0.031c-0.297,0.951-0.965,1.428-2,1.428  c-0.809,0-1.479-0.316-2.01-0.953c-0.496-0.6-0.746-1.311-0.746-2.131c0-0.348,0.09-0.807,0.27-1.379  C0.982,7.879,0.744,7.699,0.6,7.541C0.199,7.121,0,6.578,0,5.914C0,4.977,0.375,4.25,1.129,3.74C1.516,3.477,1.93,3.301,2.371,3.213  c0-0.504,0.062-0.871,0.188-1.1C2.801,1.672,3.154,1.305,3.625,1.01S4.578,0.57,5.074,0.57c0.443,0,0.834,0.096,1.17,0.289  C6.48,0.992,6.748,1.213,7.055,1.523c0.35,0.359,0.645,0.621,0.879,0.787C8.135,2.27,8.316,2.248,8.482,2.248  c0.387,0,0.58,0.09,0.58,0.27c0,0.188-0.125,0.279-0.373,0.279c-0.172,0-0.422-0.102-0.746-0.311C7.758,2.562,7.5,2.711,7.168,2.932  C6.947,3.152,6.697,3.564,6.422,4.164c-0.035,0.111-0.09,0.322-0.166,0.633c0.525-0.09,1.119-0.205,1.781-0.344  c0.174-0.336,0.48-0.766,0.922-1.283c0.303-0.359,0.732-0.664,1.285-0.916c0.551-0.252,1.068-0.379,1.543-0.379  C12.201,1.875,12.408,2.01,12.408,2.279z M4.557,5.201c0-0.332-0.062-0.625-0.188-0.883c-0.33,0.084-0.59,0.125-0.775,0.125  c-0.697,0-1.105-0.379-1.223-1.139C1.688,3.498,1.148,3.799,0.756,4.207C0.312,4.668,0.092,5.238,0.092,5.914  c0,0.781,0.295,1.389,0.881,1.824C1.055,7.787,1.18,7.865,1.346,7.975c0.049-0.123,0.125-0.285,0.229-0.486  C1.705,7.242,1.799,7.1,1.854,7.064c-0.262-0.18-0.395-0.449-0.395-0.807c0-0.783,0.412-1.312,1.234-1.596l0.02,0.062  C1.955,5.02,1.574,5.531,1.574,6.258c0,0.109,0.033,0.252,0.104,0.424C1.76,6.889,1.85,6.992,1.945,6.992  c0.434-0.602,0.971-1.057,1.611-1.367C3.768,5.521,4.102,5.379,4.557,5.201z M5.084,5.168c-0.047,0-0.182,0.033-0.402,0.094  c-0.389,1.348-1.137,2.02-2.248,2.02c-0.166,0-0.328-0.051-0.486-0.154C1.83,7.258,1.727,7.418,1.635,7.609l-0.186,0.4  c0.215,0.137,0.441,0.205,0.684,0.205c0.621,0,1.174-0.23,1.656-0.693c0.375-0.357,0.682-0.818,0.922-1.381  C4.795,5.92,4.92,5.596,5.084,5.168z M4.557,5.314C4.391,5.377,4.07,5.512,3.594,5.719C3.242,5.877,2.879,6.135,2.506,6.496  c-0.24,0.234-0.4,0.42-0.477,0.559c0.158,0.09,0.301,0.135,0.426,0.135C3.498,7.189,4.197,6.564,4.557,5.314z M7.748,2.361  C6.803,1.498,5.814,1.066,4.779,1.066c-0.393,0-0.793,0.102-1.199,0.301C3.146,1.582,2.834,1.852,2.641,2.176  c-0.104,0.172-0.156,0.52-0.156,1.037c0.428,0,0.77,0.051,1.021,0.154c0.305,0.125,0.607,0.391,0.908,0.797  c0.408-0.193,0.752-0.41,1.033-0.652L5.49,3.584c-0.348,0.277-0.686,0.5-1.016,0.674c0.139,0.234,0.207,0.529,0.207,0.881  l0.436-0.096c0.336-0.744,0.758-1.348,1.264-1.811c0.262-0.24,0.432-0.383,0.506-0.426C7.199,2.635,7.484,2.486,7.748,2.361z   M4.309,4.227c-0.254-0.4-0.529-0.654-0.824-0.762c-0.297-0.105-0.629-0.16-1-0.16c0.117,0.699,0.484,1.047,1.104,1.047  C3.691,4.352,3.93,4.309,4.309,4.227z M5.977,8.049C5.777,7.932,5.613,7.873,5.49,7.873c-0.111,0-0.166,0.059-0.166,0.176  c0,0.109,0.062,0.166,0.186,0.166c0.082,0,0.182-0.023,0.295-0.068C5.92,8.102,5.977,8.07,5.977,8.049z M8.959,2.518  c0-0.117-0.096-0.176-0.291-0.176c-0.145,0-0.326,0.031-0.549,0.094C8.41,2.6,8.631,2.684,8.783,2.684  C8.9,2.684,8.959,2.629,8.959,2.518z M12.316,2.279c0-0.207-0.178-0.311-0.529-0.311c-0.49,0-1.031,0.297-1.625,0.891  c-0.52,0.518-0.846,0.992-0.986,1.418c0.781-0.178,1.479-0.451,2.092-0.818C11.967,3.045,12.316,2.652,12.316,2.279z M14.375,5.873  c-1.311,1.602-2.219,2.402-2.723,2.402c-0.338,0-0.602-0.199-0.787-0.6c-0.299,0.4-0.625,0.6-0.984,0.6  c-0.463,0-0.693-0.336-0.693-1.014c0-0.518,0.213-1.008,0.641-1.471c0.471-0.51,1.025-0.768,1.668-0.768  c0.242,0,0.418,0.084,0.529,0.25c0.082-0.105,0.154-0.156,0.219-0.156c0.027,0,0.098,0.012,0.217,0.031  c0.117,0.02,0.188,0.031,0.219,0.031c0.025,0,0.082-0.045,0.168-0.137c0.088-0.088,0.145-0.137,0.172-0.145l-1.357,2.549  c-0.117,0.223-0.176,0.381-0.176,0.477c0,0.139,0.076,0.207,0.229,0.207c0.227,0,0.68-0.332,1.355-1.004  c0.479-0.469,0.885-0.912,1.223-1.326L14.375,5.873z M11.869,5.459c0-0.166-0.072-0.248-0.217-0.248  c-0.408,0-0.832,0.355-1.273,1.066C9.984,6.912,9.787,7.418,9.787,7.789c0,0.23,0.07,0.342,0.207,0.342  c0.277,0,0.549-0.229,0.818-0.684C11.518,6.246,11.869,5.584,11.869,5.459z M18.23,5.873c-0.367,0.623-0.771,1.16-1.213,1.615  c-0.615,0.643-1.174,0.965-1.678,0.965c-0.172,0-0.328-0.08-0.467-0.238c-0.262,0.18-0.508,0.27-0.734,0.27  c-0.234,0-0.385-0.156-0.445-0.465c-0.34,0.613-0.727,1.451-1.16,2.516c-0.305,0.732-0.523,1.098-0.652,1.098  c-0.139,0-0.312-0.045-0.52-0.135l-0.434,0.385c0.518-0.898,1.131-2.035,1.844-3.408c0.592-1.148,1.152-2.191,1.678-3.129  c0.006-0.008,0.035-0.053,0.082-0.135c0.057-0.062,0.127-0.094,0.219-0.094c0.033,0,0.096,0.016,0.186,0.041  c0.09,0.027,0.145,0.043,0.166,0.043c0.033,0,0.1-0.049,0.191-0.146c0.092-0.096,0.16-0.148,0.203-0.156l-0.178,0.344  c0.131-0.146,0.305-0.219,0.52-0.219c0.191,0,0.355,0.084,0.484,0.25c0.133,0.168,0.199,0.367,0.199,0.604  c0,0.762-0.51,1.518-1.523,2.264c0.109,0.131,0.225,0.197,0.342,0.197c0.463,0,1-0.322,1.615-0.965  c0.436-0.459,0.832-0.982,1.191-1.572L18.23,5.873z M14.605,7.914c-0.174-0.166-0.336-0.25-0.488-0.25  c-0.18,0-0.268,0.043-0.268,0.125c0,0.09,0.023,0.182,0.076,0.275s0.119,0.139,0.203,0.139c0.096,0,0.178-0.023,0.246-0.072  c0.021-0.02,0.047-0.041,0.074-0.061C14.498,8.021,14.549,7.969,14.605,7.914z M15.898,5.459c0-0.145-0.068-0.217-0.207-0.217  c-0.289,0-0.658,0.365-1.107,1.098c-0.277,0.457-0.488,0.863-0.633,1.223c0.049-0.021,0.135-0.031,0.26-0.031  c0.096,0,0.266,0.09,0.508,0.27c0.234-0.291,0.479-0.664,0.734-1.119C15.75,6.129,15.898,5.721,15.898,5.459z M22.084,5.873  c-0.367,0.623-0.771,1.16-1.213,1.615c-0.615,0.643-1.174,0.965-1.678,0.965c-0.172,0-0.33-0.08-0.467-0.238  c-0.262,0.18-0.508,0.27-0.734,0.27c-0.236,0-0.385-0.156-0.447-0.465c-0.338,0.613-0.725,1.451-1.16,2.516  c-0.303,0.732-0.521,1.098-0.652,1.098c-0.139,0-0.309-0.045-0.518-0.135l-0.434,0.385c0.518-0.898,1.131-2.035,1.844-3.408  c0.594-1.148,1.152-2.191,1.678-3.129c0.006-0.008,0.033-0.053,0.082-0.135c0.055-0.062,0.127-0.094,0.217-0.094  c0.035,0,0.098,0.016,0.188,0.041c0.09,0.027,0.145,0.043,0.166,0.043c0.033,0,0.098-0.049,0.191-0.146  c0.094-0.096,0.16-0.148,0.201-0.156l-0.174,0.344c0.129-0.146,0.303-0.219,0.516-0.219c0.195,0,0.355,0.084,0.488,0.25  c0.129,0.168,0.197,0.367,0.197,0.604c0,0.762-0.508,1.518-1.525,2.264c0.113,0.131,0.227,0.197,0.344,0.197  c0.463,0,1-0.322,1.615-0.965C21.242,6.914,21.641,6.391,22,5.801L22.084,5.873z M18.457,7.914c-0.172-0.166-0.334-0.25-0.486-0.25  c-0.178,0-0.27,0.043-0.27,0.125c0,0.09,0.027,0.182,0.078,0.275s0.119,0.139,0.201,0.139c0.098,0,0.182-0.023,0.25-0.072  c0.02-0.02,0.045-0.041,0.072-0.061C18.35,8.021,18.402,7.969,18.457,7.914z M19.752,5.459c0-0.145-0.07-0.217-0.207-0.217  c-0.291,0-0.66,0.365-1.109,1.098c-0.273,0.457-0.484,0.863-0.631,1.223c0.047-0.021,0.137-0.031,0.26-0.031  c0.098,0,0.266,0.09,0.508,0.27c0.234-0.291,0.479-0.664,0.734-1.119C19.605,6.129,19.752,5.721,19.752,5.459z M26.039,5.873  c-0.275,0.277-0.732,0.711-1.365,1.307c-0.168,0.158-0.42,0.396-0.758,0.715c-0.213,0.193-0.525,0.402-0.932,0.631  c-0.125,0.248-0.318,0.625-0.58,1.131c-0.248,0.467-0.492,0.828-0.734,1.076c-0.318,0.324-0.668,0.486-1.047,0.486  c-0.234,0-0.436-0.076-0.596-0.229c-0.162-0.152-0.244-0.342-0.244-0.57c0-0.406,0.266-0.773,0.799-1.098  c0.35-0.213,0.906-0.439,1.668-0.684l0.434-0.869c-0.449,0.338-0.787,0.506-1.014,0.506c-0.365,0-0.551-0.23-0.551-0.693  c0-0.205,0.061-0.42,0.176-0.641l0.84-1.574c0.09-0.166,0.188-0.25,0.289-0.25c0.057,0,0.133,0.016,0.229,0.041  c0.098,0.027,0.154,0.043,0.176,0.043c0.027,0,0.09-0.049,0.182-0.146c0.094-0.096,0.158-0.148,0.191-0.156l-1.264,2.363  c-0.109,0.207-0.166,0.377-0.166,0.508c0,0.193,0.049,0.289,0.146,0.289c0.096,0,0.252-0.061,0.467-0.186  c0.275-0.16,0.471-0.346,0.59-0.559l1.086-1.947c0.09-0.166,0.188-0.25,0.291-0.25c0.057,0,0.125,0.016,0.209,0.041  c0.08,0.027,0.137,0.043,0.164,0.043s0.088-0.049,0.188-0.146c0.096-0.096,0.16-0.148,0.195-0.156l-0.684,1.316  c-0.408,0.76-0.855,1.477-1.348,2.156c0.258-0.146,0.523-0.346,0.799-0.602c0.234-0.229,0.473-0.455,0.715-0.684l1.367-1.285  L26.039,5.873z M22.219,8.744c-0.773,0.275-1.307,0.496-1.596,0.662c-0.506,0.297-0.756,0.633-0.756,1.004  c0,0.291,0.145,0.436,0.436,0.436c0.322,0,0.697-0.287,1.117-0.859C21.564,9.799,21.832,9.385,22.219,8.744z M40.883,3.543  c0,0.711-0.238,1.354-0.715,1.926c-0.496,0.602-1.096,0.902-1.791,0.902c-0.533,0-0.979-0.178-1.336-0.535  c-0.361-0.354-0.539-0.795-0.539-1.32c0-0.766,0.338-1.326,1.016-1.676c0.172-0.092,0.289-0.135,0.352-0.135v0.072  c-0.836,0.289-1.254,0.869-1.254,1.738c0,0.498,0.17,0.912,0.512,1.244s0.758,0.498,1.256,0.498c0.646,0,1.215-0.295,1.705-0.881  c0.467-0.561,0.701-1.17,0.701-1.834c0-0.635-0.234-1.131-0.703-1.492c-0.422-0.324-0.959-0.486-1.617-0.486  c-0.711,0-1.402,0.246-2.072,0.736c-0.482,0.352-0.852,0.738-1.107,1.158c-0.4,0.664-0.775,1.248-1.129,1.752  c-0.738,1.057-1.617,2.113-2.629,3.17c-0.07,0-0.133-0.01-0.188-0.031l0.434-0.994c0.076-0.18,0.117-0.436,0.125-0.768  c0.008-0.449,0.027-1.211,0.062-2.289c0.084-0.545,0.18-0.988,0.289-1.326c0.18-0.551,0.436-0.932,0.768-1.139  c-0.912-0.379-1.627-0.568-2.145-0.568c-0.545,0-1.002,0.158-1.367,0.477c-0.373,0.336-0.559,0.775-0.559,1.314  c0,0.283,0.1,0.555,0.301,0.818c0.094,0.104,0.217,0.242,0.361,0.414c-0.291-0.076-0.529-0.234-0.715-0.477  c-0.186-0.24-0.279-0.518-0.279-0.828c0-0.582,0.242-1.037,0.725-1.367c0.422-0.291,0.932-0.436,1.533-0.436  c0.393,0,0.877,0.096,1.449,0.289l0.787,0.271c0.215-0.182,0.402-0.271,0.559-0.271c0.113,0,0.168,0.049,0.168,0.146  c0,0.178-0.162,0.27-0.486,0.27c-0.049,0-0.115-0.008-0.197-0.021c-0.291,0.213-0.436,0.562-0.436,1.047  c0,0.262,0.043,0.65,0.125,1.166c0.082,0.512,0.123,0.898,0.123,1.154c0,0.566-0.373,1.436-1.119,2.607  c0.967-0.979,2.068-2.461,3.307-4.441c0.357-0.58,0.682-1.002,0.973-1.264c0.621-0.566,1.398-0.85,2.33-0.85  c0.676,0,1.248,0.203,1.709,0.611C40.645,2.324,40.883,2.873,40.883,3.543z M33.705,1.633c0-0.045-0.035-0.068-0.105-0.068  c-0.107,0-0.229,0.072-0.361,0.217c0.068,0.014,0.121,0.02,0.156,0.02C33.6,1.801,33.705,1.748,33.705,1.633z M39.443,5.873  c-1.312,1.602-2.221,2.402-2.723,2.402c-0.34,0-0.604-0.199-0.789-0.6c-0.297,0.4-0.625,0.6-0.984,0.6  c-0.461,0-0.693-0.336-0.693-1.014c0-0.518,0.215-1.008,0.643-1.471c0.469-0.51,1.023-0.768,1.668-0.768  c0.24,0,0.416,0.084,0.527,0.25c0.084-0.105,0.156-0.156,0.219-0.156c0.027,0,0.098,0.012,0.217,0.031  c0.117,0.02,0.189,0.031,0.217,0.031s0.084-0.045,0.17-0.137c0.088-0.088,0.145-0.137,0.174-0.145L36.73,7.447  c-0.119,0.223-0.178,0.381-0.178,0.477c0,0.139,0.076,0.207,0.229,0.207c0.229,0,0.68-0.332,1.357-1.004  c0.477-0.469,0.883-0.912,1.223-1.326L39.443,5.873z M36.938,5.459c0-0.166-0.072-0.248-0.217-0.248  c-0.408,0-0.834,0.355-1.275,1.066c-0.393,0.635-0.59,1.141-0.59,1.512c0,0.23,0.068,0.342,0.207,0.342  c0.275,0,0.549-0.229,0.818-0.684C36.584,6.246,36.938,5.584,36.938,5.459z M43.266,1.668c-0.008,0.408-0.25,0.967-0.725,1.678  c-0.596,0.891-1.354,1.605-2.279,2.145l-0.498,1.088c-0.213,0.469-0.32,0.885-0.32,1.242c0,0.166,0.072,0.25,0.217,0.25  c0.332,0,0.74-0.305,1.223-0.912c0.346-0.428,0.643-0.881,0.893-1.357l0.08,0.072c-0.387,0.691-0.715,1.195-0.982,1.514  c-0.49,0.572-0.988,0.869-1.492,0.889c-0.186,0.008-0.334-0.068-0.445-0.227C38.826,7.891,38.77,7.68,38.77,7.418  c0-0.553,0.289-1.34,0.869-2.363C40.014,4.4,40.502,3.682,41.111,2.9c0.834-1.068,1.447-1.605,1.834-1.605  c0.08,0,0.154,0.039,0.223,0.115C43.232,1.484,43.266,1.572,43.266,1.668z M42.82,1.73c0-0.146-0.049-0.219-0.145-0.219  c-0.16,0-0.51,0.457-1.053,1.367c-0.543,0.912-0.922,1.67-1.145,2.27c0.58-0.338,1.133-0.939,1.658-1.803  C42.592,2.6,42.82,2.061,42.82,1.73z M45.047,5.873c-0.242,0.408-0.646,0.875-1.213,1.398c-0.73,0.67-1.344,1.004-1.842,1.004  c-0.264,0-0.48-0.086-0.648-0.262c-0.17-0.178-0.254-0.396-0.254-0.658c0-0.664,0.295-1.232,0.881-1.709  c0.512-0.414,1.006-0.623,1.48-0.623c0.16,0,0.297,0.057,0.416,0.166c0.115,0.109,0.176,0.244,0.176,0.404  c0,0.432-0.314,0.793-0.943,1.082c-0.477,0.221-0.877,0.332-1.201,0.332c-0.123,0.268-0.188,0.508-0.188,0.723  c0,0.254,0.094,0.381,0.281,0.381c0.455,0,1.033-0.311,1.738-0.928c0.561-0.494,0.971-0.957,1.232-1.383L45.047,5.873z   M43.525,5.396c0-0.158-0.074-0.238-0.219-0.238c-0.33,0-0.766,0.537-1.305,1.605c0.275,0,0.604-0.18,0.984-0.537  C43.346,5.887,43.525,5.611,43.525,5.396z M49.045,5.873c-0.104,0.125-0.635,0.723-1.594,1.791  c-0.375,0.416-0.723,0.623-1.049,0.623c-0.377,0-0.58-0.207-0.6-0.623c-0.006-0.186,0.066-0.395,0.219-0.631l0.859-1.314  c0.096-0.146,0.145-0.25,0.145-0.311c0-0.062-0.053-0.094-0.154-0.094c-0.264,0-0.609,0.242-1.037,0.725  c-0.305,0.352-0.559,0.709-0.766,1.068c-0.092,0.164-0.223,0.408-0.395,0.725c-0.125,0.234-0.238,0.352-0.342,0.352  c-0.033,0-0.102-0.014-0.201-0.041c-0.1-0.029-0.162-0.043-0.182-0.043c-0.057,0-0.184,0.102-0.383,0.301l1.584-3.033  c0.09-0.166,0.193-0.25,0.311-0.25c0.049,0,0.115,0.016,0.203,0.041c0.084,0.027,0.139,0.043,0.158,0.043  c0.016,0,0.072-0.045,0.174-0.135c0.1-0.09,0.17-0.146,0.211-0.168l-0.529,0.996c0.664-0.58,1.182-0.871,1.555-0.871  c0.316,0,0.477,0.158,0.477,0.479c0,0.164-0.066,0.352-0.197,0.559l-0.963,1.502c-0.125,0.193-0.186,0.311-0.186,0.352  c0,0.125,0.072,0.186,0.217,0.186c0.199,0,0.486-0.205,0.859-0.621l1.523-1.678L49.045,5.873z M51.49,5.873  c-0.105,0.158-0.43,0.594-0.975,1.307c-0.566,0.73-1.17,1.096-1.812,1.096c-0.15,0-0.281-0.064-0.389-0.195s-0.16-0.291-0.16-0.477  c0-0.18,0.072-0.418,0.217-0.715l0.809-1.646h-0.756l0.166-0.166h0.828c0.34-0.213,0.646-0.484,0.922-0.814  c0.172-0.205,0.41-0.543,0.715-1.008h0.113l-1.045,1.822h0.775l-0.061,0.166h-0.777l-1.076,1.885  c-0.152,0.264-0.23,0.445-0.23,0.549c0,0.082,0.031,0.17,0.09,0.26s0.119,0.135,0.182,0.135c0.199,0,0.455-0.121,0.766-0.363  c0.25-0.191,0.455-0.396,0.621-0.611c0.193-0.242,0.523-0.674,0.996-1.295L51.49,5.873z M53.936,5.873  c-1.355,1.602-2.264,2.402-2.725,2.402c-0.43,0-0.643-0.203-0.643-0.611c0-0.309,0.127-0.701,0.383-1.18  c0.145-0.254,0.359-0.639,0.643-1.15c0.084-0.145,0.176-0.217,0.279-0.217c0.096,0,0.178,0.016,0.242,0.047  c0.068,0.031,0.104,0.047,0.109,0.047c0.027,0,0.092-0.049,0.193-0.15c0.098-0.102,0.166-0.154,0.201-0.162l-1.316,2.508  c-0.062,0.119-0.092,0.25-0.092,0.395c0,0.178,0.08,0.27,0.236,0.27c0.16,0,0.578-0.342,1.254-1.027  c0.504-0.51,0.887-0.924,1.15-1.242L53.936,5.873z M53.312,3.822c0,0.152-0.051,0.289-0.156,0.408  c-0.104,0.121-0.221,0.184-0.352,0.184c-0.109,0-0.205-0.041-0.279-0.119c-0.076-0.08-0.113-0.176-0.113-0.285  c0-0.145,0.053-0.271,0.16-0.377c0.105-0.107,0.23-0.162,0.367-0.162c0.104,0,0.193,0.033,0.264,0.104  C53.277,3.645,53.312,3.727,53.312,3.822z M57.934,5.873c-0.105,0.125-0.637,0.723-1.596,1.791  c-0.375,0.416-0.723,0.623-1.047,0.623c-0.381,0-0.58-0.207-0.602-0.623c-0.006-0.186,0.066-0.395,0.217-0.631l0.861-1.314  c0.098-0.146,0.145-0.25,0.145-0.311c0-0.062-0.051-0.094-0.154-0.094c-0.262,0-0.607,0.242-1.035,0.725  c-0.305,0.352-0.561,0.709-0.768,1.068c-0.09,0.164-0.221,0.408-0.395,0.725c-0.125,0.234-0.238,0.352-0.34,0.352  c-0.035,0-0.104-0.014-0.203-0.041c-0.1-0.029-0.16-0.043-0.182-0.043c-0.055,0-0.182,0.102-0.385,0.301l1.586-3.033  c0.09-0.166,0.193-0.25,0.312-0.25c0.047,0,0.115,0.016,0.201,0.041c0.086,0.027,0.139,0.043,0.16,0.043  c0.014,0,0.07-0.045,0.172-0.135c0.098-0.09,0.17-0.146,0.213-0.168l-0.529,0.996c0.664-0.58,1.18-0.871,1.553-0.871  c0.318,0,0.479,0.158,0.479,0.479c0,0.164-0.066,0.352-0.199,0.559l-0.963,1.502c-0.123,0.193-0.186,0.311-0.186,0.352  c0,0.125,0.072,0.186,0.217,0.186c0.201,0,0.488-0.205,0.859-0.621l1.523-1.678L57.934,5.873z M61.123,5.873  c-0.242,0.408-0.645,0.875-1.213,1.398c-0.73,0.67-1.346,1.004-1.844,1.004c-0.262,0-0.477-0.086-0.646-0.262  c-0.168-0.178-0.254-0.396-0.254-0.658c0-0.664,0.295-1.232,0.881-1.709c0.51-0.414,1.006-0.623,1.48-0.623  c0.16,0,0.297,0.057,0.414,0.166s0.178,0.244,0.178,0.404c0,0.432-0.314,0.793-0.943,1.082c-0.477,0.221-0.879,0.332-1.201,0.332  c-0.125,0.268-0.188,0.508-0.188,0.723c0,0.254,0.094,0.381,0.279,0.381c0.457,0,1.037-0.311,1.742-0.928  c0.557-0.494,0.969-0.957,1.232-1.383L61.123,5.873z M59.6,5.396c0-0.158-0.072-0.238-0.217-0.238c-0.33,0-0.766,0.537-1.307,1.605  c0.277,0,0.605-0.18,0.986-0.537C59.422,5.887,59.6,5.611,59.6,5.396z M63.506,1.668c0,0.373-0.176,0.754-0.529,1.139  c-0.18,0.201-0.338,0.301-0.477,0.301c-0.061-0.014-0.094-0.037-0.094-0.072c0-0.033,0.023-0.062,0.068-0.084  c0.045-0.02,0.092-0.043,0.141-0.072c0.213-0.15,0.32-0.289,0.32-0.414c0-0.068-0.025-0.113-0.072-0.135  c-0.27-0.129-0.404-0.299-0.404-0.508c0-0.166,0.059-0.312,0.176-0.438c0.117-0.129,0.252-0.193,0.404-0.193  c0.125,0,0.232,0.047,0.326,0.141C63.459,1.424,63.506,1.537,63.506,1.668z M65.328,5.873c-0.436,0.742-0.85,1.244-1.242,1.51  c-0.264,0.18-0.6,0.301-1.006,0.363c-0.316,0.375-0.701,0.562-1.15,0.562c-0.545,0-0.818-0.244-0.818-0.732  c0-0.166,0.047-0.305,0.141-0.418c0.094-0.109,0.213-0.166,0.357-0.166c0.111,0,0.24,0.062,0.385,0.188  c0.178,0.158,0.297,0.248,0.35,0.268c0.111-0.082,0.203-0.217,0.275-0.404c0.072-0.186,0.109-0.354,0.109-0.506  c0-0.09-0.033-0.246-0.1-0.473c-0.064-0.225-0.098-0.4-0.098-0.533c0-0.221,0.039-0.428,0.113-0.621  c0.104-0.248,0.25-0.373,0.436-0.373c0.172,0,0.26,0.062,0.26,0.188c0,0.15-0.107,0.416-0.32,0.797  c0.205,0.477,0.311,0.854,0.311,1.131c0,0.428-0.064,0.742-0.186,0.941c0.414-0.09,0.736-0.225,0.971-0.404  c0.346-0.262,0.723-0.727,1.131-1.389L65.328,5.873z M62.24,7.553c-0.047-0.021-0.145-0.094-0.289-0.219  C61.82,7.23,61.73,7.18,61.682,7.18c-0.123,0-0.186,0.068-0.186,0.207c0,0.152,0.109,0.248,0.33,0.289  C62.055,7.676,62.193,7.635,62.24,7.553z M63.217,4.744c0-0.076-0.043-0.113-0.125-0.113c-0.043,0-0.086,0.045-0.131,0.141  c-0.045,0.092-0.066,0.191-0.066,0.295c0,0.145,0.02,0.254,0.062,0.33C63.129,5.156,63.217,4.939,63.217,4.744z M78.047,1.781  l-0.039,0.084c-0.285-0.197-0.531-0.332-0.742-0.402c-0.209-0.07-0.482-0.105-0.814-0.105c-0.172,0-0.523,0.043-1.055,0.125  c0.482,0.732,0.725,1.584,0.725,2.551c0,1.031-0.352,2.02-1.057,2.967s-1.492,1.418-2.363,1.41  c-0.529-0.006-1.039-0.174-1.521-0.508c-0.477,0.34-0.984,0.508-1.521,0.508c-0.4,0-0.725-0.082-0.969-0.248  c-0.246-0.166-0.369-0.396-0.369-0.688c0-0.217,0.092-0.396,0.275-0.543c0.184-0.145,0.42-0.219,0.709-0.219  c0.326,0,0.664,0.098,1.016,0.289c0.139,0.078,0.346,0.207,0.621,0.395c0.145-0.098,0.324-0.426,0.539-0.984  c0.318-0.852,0.557-1.432,0.715-1.744c0.744-1.5,1.559-2.5,2.434-2.998l0.436-0.25c-0.008-0.061-0.125-0.189-0.352-0.383  c-0.719-0.613-1.59-0.922-2.611-0.922c-1.152,0-2.039,0.359-2.662,1.08c-0.471,0.541-0.705,1.146-0.705,1.82c0,0.02,0,0.053,0,0.102  c0,0.043,0,0.076,0,0.104c0.574-0.51,1.115-0.766,1.629-0.766c0.543,0,0.994,0.15,1.35,0.449s0.533,0.662,0.533,1.088  c0,0.379-0.154,0.705-0.465,0.977c-0.312,0.271-0.66,0.408-1.047,0.408c-0.711,0-1.271-0.307-1.678-0.924  c-0.18-0.268-0.314-0.574-0.402-0.922c-0.387,0.492-0.58,1.033-0.58,1.627c0,0.25,0.102,0.637,0.309,1.16l-0.092,0.064  c-0.221-0.465-0.332-0.871-0.332-1.225c0-0.441,0.102-0.854,0.307-1.232c0.047-0.096,0.166-0.285,0.355-0.568  c0-0.062,0-0.156,0-0.281c0-0.828,0.275-1.525,0.828-2.092C70.094,0.328,70.975,0,72.102,0c1.348,0,2.414,0.471,3.201,1.41  c0.338-0.111,0.721-0.168,1.148-0.168C77.178,1.242,77.711,1.424,78.047,1.781z M70.775,7.531c-0.109-0.111-0.254-0.221-0.434-0.332  c-0.381-0.229-0.777-0.346-1.191-0.354c-0.193,0-0.352,0.061-0.473,0.178c-0.119,0.117-0.18,0.266-0.18,0.445  c0,0.215,0.088,0.393,0.264,0.539c0.176,0.145,0.393,0.217,0.646,0.217C69.797,8.225,70.252,7.992,70.775,7.531z M72.133,3.994  c0-0.443-0.189-0.801-0.57-1.07C71.23,2.688,70.834,2.57,70.373,2.57c-0.539,0-1.074,0.275-1.605,0.83  c0.123,0.549,0.342,0.984,0.65,1.311c0.354,0.367,0.795,0.551,1.328,0.551c0.352,0,0.67-0.125,0.957-0.373  C71.99,4.639,72.133,4.34,72.133,3.994z M75.582,3.201c0-0.207-0.033-0.486-0.104-0.84c-0.09-0.428-0.189-0.672-0.301-0.734  c-0.795,0.387-1.404,1.25-1.834,2.59c-0.088,0.297-0.23,0.738-0.424,1.326c-0.221,0.627-0.498,1.143-0.828,1.543  c-0.084,0.104-0.328,0.324-0.736,0.662c0.422,0.242,0.701,0.363,0.84,0.363c0.959,0,1.789-0.596,2.486-1.793  C75.281,5.277,75.582,4.236,75.582,3.201z M81.375,5.873c-1.314,1.602-2.223,2.402-2.727,2.402c-0.34,0-0.602-0.199-0.787-0.6  c-0.297,0.4-0.625,0.6-0.984,0.6c-0.461,0-0.693-0.336-0.693-1.014c0-0.518,0.215-1.008,0.643-1.471  c0.469-0.51,1.025-0.768,1.668-0.768c0.24,0,0.416,0.084,0.525,0.25c0.084-0.105,0.156-0.156,0.219-0.156  c0.029,0,0.1,0.012,0.217,0.031c0.119,0.02,0.191,0.031,0.219,0.031s0.084-0.045,0.17-0.137c0.088-0.088,0.145-0.137,0.172-0.145  l-1.357,2.549c-0.117,0.223-0.176,0.381-0.176,0.477c0,0.139,0.076,0.207,0.229,0.207c0.229,0,0.68-0.332,1.357-1.004  c0.477-0.469,0.883-0.912,1.223-1.326L81.375,5.873z M78.865,5.459c0-0.166-0.072-0.248-0.217-0.248  c-0.408,0-0.832,0.355-1.273,1.066c-0.393,0.635-0.592,1.141-0.592,1.512c0,0.23,0.07,0.342,0.209,0.342  c0.275,0,0.549-0.229,0.816-0.684C78.514,6.246,78.865,5.584,78.865,5.459z M85.33,5.873c-0.277,0.277-0.732,0.711-1.367,1.307  c-0.166,0.158-0.418,0.396-0.758,0.715c-0.215,0.193-0.523,0.402-0.932,0.631c-0.125,0.248-0.318,0.625-0.58,1.131  c-0.248,0.467-0.494,0.828-0.734,1.076c-0.318,0.324-0.666,0.486-1.047,0.486c-0.234,0-0.434-0.076-0.596-0.229  s-0.242-0.342-0.242-0.57c0-0.406,0.264-0.773,0.797-1.098c0.352-0.213,0.908-0.439,1.668-0.684l0.436-0.869  c-0.449,0.338-0.789,0.506-1.016,0.506c-0.367,0-0.549-0.23-0.549-0.693c0-0.205,0.057-0.42,0.176-0.641l0.838-1.574  c0.09-0.166,0.188-0.25,0.289-0.25c0.057,0,0.133,0.016,0.23,0.041c0.096,0.027,0.154,0.043,0.176,0.043  c0.025,0,0.086-0.049,0.182-0.146c0.092-0.096,0.156-0.148,0.189-0.156l-1.262,2.363c-0.111,0.207-0.166,0.377-0.166,0.508  c0,0.193,0.049,0.289,0.145,0.289s0.252-0.061,0.467-0.186c0.275-0.16,0.471-0.346,0.59-0.559l1.088-1.947  c0.09-0.166,0.186-0.25,0.289-0.25c0.055,0,0.125,0.016,0.207,0.041c0.084,0.027,0.139,0.043,0.166,0.043  c0.029,0,0.09-0.049,0.188-0.146c0.096-0.096,0.162-0.148,0.197-0.156l-0.686,1.316c-0.406,0.76-0.855,1.477-1.346,2.156  c0.256-0.146,0.521-0.346,0.797-0.602c0.234-0.229,0.473-0.455,0.715-0.684l1.367-1.285L85.33,5.873z M81.508,8.744  c-0.773,0.275-1.307,0.496-1.596,0.662c-0.504,0.297-0.756,0.633-0.756,1.004c0,0.291,0.145,0.436,0.436,0.436  c0.324,0,0.697-0.287,1.117-0.859C80.854,9.799,81.121,9.385,81.508,8.744z" style="fill: rgb(230, 202, 162);"></path>
</svg>