<?xml version="1.0" standalone="no"?><!DOCTYPE svg PUBLIC "-//W3C//DTD SVG 1.1//EN" "http://www.w3.org/Graphics/SVG/1.1/DTD/svg11.dtd"><svg t="1482290584892" class="icon" style="" viewBox="0 0 1024 1024" version="1.1" xmlns="http://www.w3.org/2000/svg" p-id="2264" xmlns:xlink="http://www.w3.org/1999/xlink" width="200" height="200"><defs><style type="text/css"></style></defs><path d="M534.848 963.392c-247.04 0-448-200.96-448-448s200.96-448 448-448 448 200.96 448 448S781.888 963.392 534.848 963.392zM534.848 131.392c-211.776 0-384 172.224-384 384s172.224 384 384 384 384-172.224 384-384S746.624 131.392 534.848 131.392z" p-id="2265" fill="#aa0027"></path><path d="M398.016 306.368c0 0-63.808 35.136-69.12 75.456-5.312 40.32 32.832 126.144 89.28 188.352s156.672 148.032 219.456 162.432c62.784 14.4 85.248 14.4 131.328-45.504 0 0 20.16-29.376-5.76-51.264-25.92-21.888-73.152-54.72-91.008-61.632-17.856-6.912-26.496-6.912-45.504 1.728C607.68 584.576 595.584 596.672 569.664 576.512 543.744 556.352 501.12 511.424 498.24 507.392 495.36 503.36 473.472 480.32 484.992 459.584c11.52-20.736 20.16-35.712 13.824-48.96S460.8 339.712 440.64 320.768C420.48 301.824 417.024 300.608 398.016 306.368z" p-id="2266" fill="#aa0027"></path></svg>