<?xml version="1.0" encoding="utf-8"?>
<!-- Generator: Adobe Illustrator 16.0.0, SVG Export Plug-In . SVG Version: 6.00 Build 0)  -->
<!DOCTYPE svg PUBLIC "-//W3C//DTD SVG 1.1//EN" "http://www.w3.org/Graphics/SVG/1.1/DTD/svg11.dtd">
<svg version="1.1" id="_x39_391330604" xmlns="http://www.w3.org/2000/svg" xmlns:xlink="http://www.w3.org/1999/xlink" x="0px"
	 y="0px" width="612px" height="792px" viewBox="0 0 612 792" enable-background="new 0 0 612 792" xml:space="preserve">
<g>
	<path fill="#FFF2BF" d="M201.761,121.843h-52.95V52.134H10.377V0h0.016c11.95,0.029,157.279,0.059,169.226,0.059h8.759v69.696
		h13.383V0.059h92.51v121.784h-52.95v17.625h66.338V0.059h145.464v69.696c4.459,0,8.929,0,13.392,0V0.059h145.456v191.485h-8.756
		c-14.722,0-29.459,0-44.193,0v17.621h52.949v191.493H506.072v87.33h13.382v-69.709h92.517v121.789h-52.949v17.629h52.949v11.515
		c0,15.731,0.017,207.057,0.029,222.788v0.017h-39.603V609.777h-52.943v-69.709h-52.942V348.571H572.4v-87.322h-13.382v69.709
		h-92.507v-69.709h-52.95v-69.705h-52.952V69.755h52.952V52.134h-66.341v139.41h-145.46V121.843L201.761,121.843z M413.562,121.843
		H400.17v17.625h13.392V121.843L413.562,121.843z M453.119,139.464h13.393c0-5.879,0-11.746,0-17.625c-4.463,0-8.933,0-13.393,0
		V139.464L453.119,139.464z M506.072,261.249v17.622h13.382v-17.622H506.072L506.072,261.249z M519.454,209.165v-17.621
		c-4.463,0-8.916,0-13.382,0c0,5.871,0,11.75,0,17.621H519.454L519.454,209.165z M466.512,209.165c0-5.871,0-11.746,0-17.621
		h-13.393v17.621H466.512L466.512,209.165z M506.072,121.843c0,5.879,0,11.746,0,17.625c4.469,0,8.919,0,13.382,0v-17.625
		C514.991,121.843,510.538,121.843,506.072,121.843L506.072,121.843z M559.019,139.464c4.463,0,8.923,0,13.382,0v-87.33h-66.331
		v17.621c14.734,0,29.469,0,44.203,0h8.743v69.709H559.019z M559.019,487.988H572.4v-17.625h-13.382V487.988L559.019,487.988z
		 M241.321,69.755h13.386V52.134h-13.386V69.755L241.321,69.755z"/>
	<path fill="#E41D1F" d="M497.322,40.616v35.222h-22.064v-64.26H581.16h22.052v168.444c-33.912,0-67.838,0-101.753,0v-29.039
		c26.563,0,53.129,0,79.701,0V40.616H497.322L497.322,40.616z M550.275,185.475v133.96h-75.018v-64.264h22.064v35.226h30.885
		V185.475H550.275L550.275,185.475z M475.258,215.243c0-33.155,0-66.318,0-99.481h22.064c0,33.164,0,66.322,0,99.481H475.258
		L475.258,215.243z M528.207,145.538v-35.222c-26.565,0-53.135,0-79.708,0V81.274c33.923,0,67.851,0,101.776,0v64.26h-22.068
		V145.538z M471.122,180.025H369.358V81.278h48.813v29.043H391.42v40.667h79.698v29.038H471.122z M581.16,598.259h-52.953v-58.896
		l0,0v-39.856v-14.26v-55.444h75.005v98.738h-48.811v-29.038h26.759v-40.658h-30.885v26.402l0,0v43.294l0,0v40.671h52.937
		c0,15.74,0.016,207.061,0.042,222.805h-22.11L581.16,598.259L581.16,598.259z M524.071,528.541h-48.813V360.097H581.16V249.726
		h-26.759v-29.039h48.811v168.448h-105.89v110.367h26.749V528.541L524.071,528.541z M524.071,249.726h-101.76v-64.251l22.062-0.008
		v35.226h79.698V249.726L524.071,249.726z M422.312,145.538V40.616h-83.838v139.41H210.51v-64.264h22.062v35.222h83.837V11.577
		H444.37v133.961H422.312L422.312,145.538z M210.51,110.316h-6.77h-46.18V40.616H10.377V11.522
		c11.957,0.034,157.292,0.059,169.242,0.059v69.696h24.122h6.77h22.062h12.28h18.614V40.616h-30.895v35.222H210.51v-64.26h75.014
		v98.739h-40.672h-12.28H210.51L210.51,110.316z"/>
</g>
</svg>
