<svg xmlns="http://www.w3.org/2000/svg" xmlns:xlink="http://www.w3.org/1999/xlink" version="1.1" id="8034148140" x="0px" y="0px" width="100%" height="100%" viewBox="0 0 595.697 60.657" enable-background="new 0 0 595.697 60.657" xml:space="preserve" preserveAspectRatio="none" class="element svg-element">
<path fill="#FF394C" d="M16.731,35.976V32.21l6.693-3.766l-6.693-3.764v-4.184l12.97,7.947L16.731,35.976z M10.457,28.447  l6.273,3.764v-7.529L10.457,28.447z M578.546,38.486l-11.713-7.109c2.928,2.51,3.764,5.855,2.09,9.203  c-2.928,5.855-11.713,5.438-12.131,0c-0.418-4.604,2.928-5.021,4.184-4.604l0,0l0,0c0.418,0,0.836,0.418,0.836,0.836  c0,0.838-0.418,1.256-1.254,1.256c-0.838,0-1.256-0.418-1.256-1.256v-0.418c-0.836,0-1.674,0.418-2.092,2.094  c-0.836,3.346,2.93,5.438,5.855,4.184c2.93-1.256,3.766-5.439,1.256-8.367c-2.928-3.348-8.367-4.184-12.131-4.602h-0.42H383.187  c-0.418,4.184-1.674,7.109-3.348,7.109c-1.672,0-3.348-2.928-3.348-7.109h-13.387c-0.418,4.184-2.51,7.109-5.02,7.109  s-4.602-2.928-5.02-7.109H331.73c-4.602,8.785-15.059,19.242-32.629,30.119l-1.255,0.836l-1.255-0.836  c-17.988-10.877-28.027-20.916-32.629-30.119h-23.009c-0.418,4.184-2.511,7.109-5.021,7.109s-4.602-2.928-5.02-7.109h-13.388  c-0.419,4.184-1.674,7.109-3.347,7.109c-1.674,0-3.347-2.928-3.347-7.109H43.505h-0.418c-4.185,0.836-9.622,1.674-12.55,5.02  c-2.512,2.928-1.675,6.693,1.255,8.367c2.928,1.254,6.692-1.256,5.855-4.184c-0.419-2.094-1.255-2.512-2.092-2.512v0.418  c0,0.838-0.837,1.256-1.255,1.256s-0.837-0.836-0.837-1.256c0-0.418,0-0.836,0.419-1.254l0,0l0,0c1.255-0.418,4.602,0,4.183,4.602  c0,5.857-8.784,6.275-11.713,0.42c-1.674-3.348-0.837-6.693,2.092-9.203L16.73,38.486L-0.001,28.447L16.73,18.406l11.714,7.111  c-2.929-2.51-3.766-5.855-2.092-9.203c2.929-5.855,11.713-5.438,12.132,0c0.418,4.602-2.929,5.021-4.184,4.602l0,0l0,0  c-0.837,0-0.837-0.418-0.837-0.836c0-0.836,0.419-1.254,1.255-1.254c0.837,0,1.255,0.418,1.255,1.254v0.418  c0.837,0,1.674-0.418,2.092-2.092c0.837-3.348-2.928-5.438-5.855-4.184c-2.929,1.256-3.766,5.439-1.255,8.367  c2.929,3.346,8.365,4.184,12.132,4.602h0.418h167.331c0.418-4.184,1.673-7.111,3.347-7.111c1.673,0,3.347,2.928,3.347,7.111h13.388  c0.418-4.184,2.51-7.111,5.02-7.111c2.511,0,4.603,2.928,5.021,7.111h21.335c-1.255-2.93-1.673-5.855-1.673-8.365  c0-5.857,2.51-10.459,6.273-13.389C270.659,1.673,276.095,0,281.117,0c5.438,0,11.295,1.674,16.313,5.856  C302.45,1.673,308.306,0,313.743,0c5.439,0,10.459,1.674,14.225,5.02c4.184,2.93,6.693,7.531,6.693,13.387  c0,2.51-0.42,5.438-1.674,8.367h20.08c0.418-4.184,2.51-7.111,5.02-7.111s4.602,2.928,5.02,7.111h13.387  c0.42-4.184,1.676-7.111,3.348-7.111c1.674,0,3.348,2.928,3.348,7.111h169.004h0.418c3.766-0.42,9.203-1.256,12.133-4.602  c2.51-2.93,1.672-6.693-1.256-8.367c-2.928-1.256-6.691,1.254-5.855,4.184c0.418,1.674,1.256,2.092,2.092,2.092v-0.418  c0-0.836,0.836-1.256,1.254-1.256c0.838,0,1.256,0.838,1.256,1.256s-0.418,0.836-0.836,0.836l0,0l0,0  c-1.256,0.418-4.602,0-4.184-4.602c0.418-5.438,9.201-5.855,12.131,0c1.674,3.348,0.836,6.693-2.092,9.203l11.713-7.111  l16.732,10.039L578.546,38.486z M16.731,37.65l15.479-9.203l-15.479-9.621L1.254,28.447L16.731,37.65z M299.103,10.041  L299.103,10.041L299.103,10.041L299.103,10.041z M328.386,18.406c0-4.602-2.092-7.947-5.021-10.457  c-2.928-2.511-5.02-3.766-9.621-3.766s-9.203,1.255-13.387,4.602c2.092,2.928,2.93,5.855,2.93,9.203  c0,8.365-6.694,16.732-16.315,16.732h-0.419c-4.602,0-7.947-1.674-10.039-4.602c-2.092-2.512-3.347-5.857-3.347-9.203  c0-2.512,0.836-5.021,2.092-6.693c2.928-3.346,8.784-5.02,12.55-1.674c4.184,4.184,0.418,10.041,0.418,10.041l0,0v-0.418  c0-0.42,0-1.256,0-1.674c0-1.256-0.418-2.512-0.837-3.348c-0.837-0.838-1.673-2.092-4.602-2.51l0,0  c-1.673,0-3.348,1.254-4.184,2.092c-0.837,0.836-1.256,2.51-1.256,4.184c0,2.092,0.837,4.602,2.511,6.273  c1.674,1.674,3.766,2.93,7.111,2.93h0.418c7.111,0,12.132-6.275,12.132-12.551c0-2.928-0.838-5.438-3.347-7.529  c-4.184-4.184-8.785-5.438-13.805-5.438l0,0c-4.603,0-7.111,0.837-10.458,3.348c-2.93,2.51-5.021,5.855-5.021,10.457  c0,8.785,5.856,24.682,30.538,40.16C322.529,43.087,328.386,27.191,328.386,18.406z M578.546,18.826l-15.48,9.201l15.48,9.203  l15.477-9.203L578.546,18.826z M565.575,28.447l12.971,7.947V32.21l-6.693-3.766l6.693-3.766v-4.184L565.575,28.447z M584.82,28.447  l-6.273-3.766v7.529L584.82,28.447z" style="fill: rgb(224, 199, 162);"></path>
</svg>