<svg xmlns="http://www.w3.org/2000/svg" xmlns:xlink="http://www.w3.org/1999/xlink" version="1.1" id="2000710508" x="0px" y="0px" width="100%" height="100%" viewBox="0 0 138.365 85.051" enable-background="new 0 0 138.365 85.051" xml:space="preserve" preserveAspectRatio="none" class="element svg-element">
<path fill="#08a1ef" d="M122.296,49.416h16.069L132.27,36.94h-21.557v-1.998h26.601v-1.576v-1.578V15.562v-3.155h-11.985h-14.615  V7.15h26.601V3.996h-26.601V0H98.725v3.996H54.568V0H42.581v3.996h-20.29V0H10.304v3.996H0V7.15h42.581v5.257H0v3.155h42.581v4.73H0  v3.154h65.188v-3.154H54.568v-4.73h44.156v16.226h-3.378V17.805H87.46v13.983h-3.03V17.805H72.442v13.983v1.578v1.576h26.282v1.998  h-22.11l-3.687,9.288h-7.74v-3.926v-3.154v-4.206v-3.154V28.95v-3.154H53.201h-8.622H32.596v3.154v2.838v3.154v4.206v3.154v3.926  h-3.225V31.474v-3.155H17.384h-5.397H0v3.155v12.827h11.987V31.474h5.397v14.755H0v3.154h87.46l4.534-9.287h6.73v9.32h11.988v-9.32  h7.252L122.296,49.416z M54.568,12.407V7.15h44.156v5.257H54.568z M110.713,15.562h14.615v16.226h-3.032V17.805h-7.887v13.983  h-3.696V15.562z M44.579,28.95h8.622v2.838h-8.622V28.95z M44.579,34.942h8.622v4.206h-8.622V34.942z M44.579,42.303h8.622v3.926  h-8.622V42.303z M19.562,78.933V56.357H0.329v27.255h14.052v-2.39l3.556,3.828l3.042-2.131l-3.533-3.987H19.562z M13.274,74.226  l-2.936,2.645l2.674,2.88c-0.774-0.122-2.144-0.2-4.718-0.2c-1.053,0-2.265,0.015-3.612,0.042H4.353V60.38h11.309  c-0.025,0.38-0.068,0.872-0.122,1.479c-0.199,9.158-0.069,13.232,0.173,15.119L13.274,74.226z M22.217,56.357h4.022v27.091h-4.022  V56.357z M50.44,56.357h19.235v4.098c0,0-15.024,0.038-15.21,0.016v19.121h0.66c2.132-0.027,4.023-0.042,5.665-0.042  c2.13,0,3.691,0.023,4.86,0.062v-0.177v-7.522h-7.018v-4.021h11.042v2.096v9.448v0.855v2.736v0.586H50.44V56.357z M83.394,56.357  h4.323v22.151l-0.135,0.207l-4.585,4.757l-0.212,0.14H72.328v-3.968l9.08-0.325l2.166-2.167L83.394,56.357z M90.37,56.357h4.022  v27.091H90.37V56.357z M109.265,56.357h-4.359l-1.25,0.285L97.046,70.04v13.239h3.842l0.157-10.027h11.158  c0.125,1.143,0.141,2.928,0.053,5.343v5.018h4.021V69.87l-6.44-12.882L109.265,56.357z M102.205,69.397l2.645-5.865l1.291-3.152  h0.921l1.589,3.178c0.768,1.729,1.553,3.624,2.358,5.696L102.205,69.397z M136.661,56.357v27.255h-6.543l-0.232-0.464  c-1.353-2.706-3.619-8.761-6.731-17.991c-0.911-2.551-1.373-3.886-1.611-4.611c-0.034,0-0.06-0.001-0.094-0.001v23.067h-4.021  V59.555v-3.197h4.021h2.717l0.222,0.504c1.242,2.822,3.382,8.751,6.546,18.12c0.799,2.22,1.385,3.766,1.748,4.61h0.007  c-0.031-0.557-0.051-1.389-0.051-2.67c-0.168-19.257,0.078-19.744,0.26-20.101l0.23-0.463H136.661z M44.425,56.357h3.534v27.255  h-4.074h-2.47l-0.233-0.464c-1.354-2.706-3.617-8.761-6.729-17.991c-0.913-2.551-1.374-3.886-1.613-4.611  c-0.035,0-0.06-0.001-0.093-0.001v23.067h-4.022V59.555v-3.197h4.022h2.717l0.223,0.504c1.24,2.822,3.38,8.751,6.544,18.12  c0.739,2.05,1.288,3.5,1.655,4.379V69.132c-0.008-2.188-0.006-3.975,0-5.441v-7.333H44.425z" style="fill: rgb(247, 223, 186);"></path>
</svg>